<?xml version="1.0" encoding="UTF-8"?>
<svg id="Layer_1" xmlns="http://www.w3.org/2000/svg" baseProfile="tiny" version="1.2" viewBox="0 0 159.59 72.63">
  <!-- Generator: Adobe Illustrator 30.1.0, SVG Export Plug-In . SVG Version: 2.1.1 Build 136)  -->
  <path d="M69.93,72.62H16.46C.19,72.62-2.08,58.82,1.4,53.05L30.29,5.04C32.76.92,36.66,0,41.55,0h13.48l6.72,11.77h-5.21l6.17,11.16h-20.66l7.38,12.93,20.54-.02,10.59,17.73c5.58,9.4-3.11,19.06-10.62,19.06" fill="#009c77"/>
  <polygon points="74.37 11.77 67.73 0 65.12 0 71.76 11.77 74.37 11.77" fill="#009c77"/>
  <polygon points="68.57 11.77 61.93 0 59.32 0 65.93 11.77 68.57 11.77" fill="#009c77"/>
  <polygon points="101.23 72.62 98.59 72.62 91.95 60.85 94.59 60.85 101.23 72.62" fill="#009c77"/>
  <polygon points="95.41 72.62 88.79 60.85 86.15 60.85 92.79 72.62 95.41 72.62" fill="#009c77"/>
  <path d="M143.12,0h-53.47C82.17,0,73.61,9.55,79.06,19.03l2.22,3.87h19.18l7.38,12.94h-19.18l14.37,25.01h-5.18l6.72,11.78h13.48c4.86,0,8.76-.91,11.26-5.04l28.88-48.01c3.46-5.78,1.21-19.58-15.06-19.58M154.8,17.63l-29,48.21c-.4.54-.79,1.01-1.31,1.43-1.83,1.33-4.27,1.43-6.47,1.46h-11.18l-3.58-6.25h5.21l-13.06-22.74h19.13l-11.8-20.74h-19.2l-1.43-2.54c-.96-2.2-1.14-4.02-.4-6.3,1.26-3.18,4.05-5.85,7.55-6.24l.47-.03,54.65.03,2.27.27c2.1.42,3.73,1.01,5.46,2.25,1.26,1.06,2.05,2.07,2.74,3.53.99,2.44,1.23,5.28-.05,7.65" fill="#009c77"/>
</svg>