<svg width="96" height="91" viewBox="0 0 96 91" fill="none" xmlns="http://www.w3.org/2000/svg">
<path d="M35.9247 15V3.36364H37.3338V13.75H42.7429V15H35.9247ZM44.7429 15V6.27273H46.0838V15H44.7429ZM45.4247 4.81818C45.1634 4.81818 44.938 4.72917 44.7486 4.55114C44.563 4.37311 44.4702 4.15909 44.4702 3.90909C44.4702 3.65909 44.563 3.44508 44.7486 3.26705C44.938 3.08902 45.1634 3 45.4247 3C45.6861 3 45.9096 3.08902 46.0952 3.26705C46.2846 3.44508 46.3793 3.65909 46.3793 3.90909C46.3793 4.15909 46.2846 4.37311 46.0952 4.55114C45.9096 4.72917 45.6861 4.81818 45.4247 4.81818ZM54.7216 8.22727L53.517 8.56818C53.4413 8.36742 53.3295 8.17235 53.1818 7.98295C53.0379 7.78977 52.8409 7.63068 52.5909 7.50568C52.3409 7.38068 52.0208 7.31818 51.6307 7.31818C51.0966 7.31818 50.6515 7.44129 50.2955 7.6875C49.9432 7.92992 49.767 8.23864 49.767 8.61364C49.767 8.94697 49.8883 9.21023 50.1307 9.40341C50.3731 9.59659 50.7519 9.75758 51.267 9.88636L52.5625 10.2045C53.3428 10.3939 53.9242 10.6837 54.3068 11.0739C54.6894 11.4602 54.8807 11.9583 54.8807 12.5682C54.8807 13.0682 54.7367 13.5152 54.4489 13.9091C54.1648 14.303 53.767 14.6136 53.2557 14.8409C52.7443 15.0682 52.1496 15.1818 51.4716 15.1818C50.5814 15.1818 49.8447 14.9886 49.2614 14.6023C48.678 14.2159 48.3087 13.6515 48.1534 12.9091L49.4261 12.5909C49.5473 13.0606 49.7765 13.4129 50.1136 13.6477C50.4545 13.8826 50.8996 14 51.4489 14C52.0739 14 52.5701 13.8674 52.9375 13.6023C53.3087 13.3333 53.4943 13.0114 53.4943 12.6364C53.4943 12.3333 53.3883 12.0795 53.1761 11.875C52.964 11.6667 52.6383 11.5114 52.1989 11.4091L50.7443 11.0682C49.9451 10.8788 49.358 10.5852 48.983 10.1875C48.6117 9.78598 48.4261 9.28409 48.4261 8.68182C48.4261 8.18939 48.5644 7.75379 48.8409 7.375C49.1212 6.99621 49.5019 6.69886 49.983 6.48295C50.4678 6.26705 51.017 6.15909 51.6307 6.15909C52.4943 6.15909 53.1723 6.34848 53.6648 6.72727C54.161 7.10606 54.5133 7.60606 54.7216 8.22727ZM60.6946 6.27273V7.40909H56.1719V6.27273H60.6946ZM57.4901 4.18182H58.831V12.5C58.831 12.8788 58.8859 13.1629 58.9957 13.3523C59.1094 13.5379 59.2533 13.6629 59.4276 13.7273C59.6056 13.7879 59.7931 13.8182 59.9901 13.8182C60.1378 13.8182 60.259 13.8106 60.3537 13.7955C60.4484 13.7765 60.5241 13.7614 60.581 13.75L60.8537 14.9545C60.7628 14.9886 60.6359 15.0227 60.473 15.0568C60.3101 15.0947 60.1037 15.1136 59.8537 15.1136C59.4749 15.1136 59.1037 15.0322 58.7401 14.8693C58.3802 14.7064 58.081 14.4583 57.8423 14.125C57.6075 13.7917 57.4901 13.3712 57.4901 12.8636V4.18182Z" fill="black"/>
<rect y="23" width="8" height="8" rx="4" fill="#D9D9D9"/>
<rect x="16" y="25" width="80" height="4" fill="#D9D9D9"/>
<rect y="35" width="8" height="8" rx="4" fill="#D9D9D9"/>
<rect x="16" y="37" width="80" height="4" fill="#D9D9D9"/>
<rect y="47" width="8" height="8" rx="4" fill="#D9D9D9"/>
<rect x="16" y="49" width="80" height="4" fill="#D9D9D9"/>
<rect y="59" width="8" height="8" rx="4" fill="#D9D9D9"/>
<rect x="16" y="61" width="80" height="4" fill="#D9D9D9"/>
<rect y="71" width="8" height="8" rx="4" fill="#D9D9D9"/>
<rect x="16" y="73" width="80" height="4" fill="#D9D9D9"/>
<rect y="83" width="8" height="8" rx="4" fill="#D9D9D9"/>
<rect x="16" y="85" width="80" height="4" fill="#D9D9D9"/>
</svg>
