<svg width="96" height="91" viewBox="0 0 96 91" fill="none" xmlns="http://www.w3.org/2000/svg">
<path d="M29.304 6.27273C29.2358 5.69697 28.9593 5.25 28.4744 4.93182C27.9896 4.61364 27.3949 4.45455 26.6903 4.45455C26.1752 4.45455 25.7244 4.53788 25.3381 4.70455C24.9555 4.87121 24.6563 5.10038 24.4403 5.39205C24.2282 5.68371 24.1222 6.01515 24.1222 6.38636C24.1222 6.69697 24.196 6.96401 24.3438 7.1875C24.4953 7.4072 24.6884 7.59091 24.9233 7.73864C25.1581 7.88258 25.4044 8.00189 25.6619 8.09659C25.9195 8.1875 26.1562 8.26136 26.3722 8.31818L27.554 8.63636C27.857 8.71591 28.1941 8.82576 28.5653 8.96591C28.9403 9.10606 29.2983 9.29735 29.6392 9.53977C29.9839 9.77841 30.268 10.0852 30.4915 10.4602C30.715 10.8352 30.8267 11.2955 30.8267 11.8409C30.8267 12.4697 30.6619 13.0379 30.3324 13.5455C30.0066 14.053 29.5294 14.4564 28.9006 14.7557C28.2756 15.0549 27.5161 15.2045 26.6222 15.2045C25.7888 15.2045 25.0672 15.0701 24.4574 14.8011C23.8513 14.5322 23.3741 14.1572 23.0256 13.6761C22.6809 13.1951 22.4858 12.6364 22.4403 12H23.8949C23.9328 12.4394 24.0805 12.803 24.3381 13.0909C24.5994 13.375 24.929 13.5871 25.3267 13.7273C25.7282 13.8636 26.16 13.9318 26.6222 13.9318C27.16 13.9318 27.643 13.8447 28.071 13.6705C28.4991 13.4924 28.8381 13.2462 29.0881 12.9318C29.3381 12.6136 29.4631 12.2424 29.4631 11.8182C29.4631 11.4318 29.3551 11.1174 29.1392 10.875C28.9233 10.6326 28.6392 10.4356 28.2869 10.2841C27.9347 10.1326 27.554 10 27.1449 9.88636L25.7131 9.47727C24.804 9.21591 24.0843 8.8428 23.554 8.35795C23.0237 7.87311 22.7585 7.23864 22.7585 6.45455C22.7585 5.80303 22.9347 5.23485 23.2869 4.75C23.643 4.26136 24.1203 3.88258 24.7188 3.61364C25.321 3.34091 25.9934 3.20455 26.7358 3.20455C27.4858 3.20455 28.1525 3.33901 28.7358 3.60795C29.3191 3.87311 29.7813 4.23674 30.1222 4.69886C30.4669 5.16098 30.6487 5.68561 30.6676 6.27273H29.304ZM36.7571 6.27273V7.40909H32.2344V6.27273H36.7571ZM33.5526 4.18182H34.8935V12.5C34.8935 12.8788 34.9484 13.1629 35.0582 13.3523C35.1719 13.5379 35.3158 13.6629 35.4901 13.7273C35.6681 13.7879 35.8556 13.8182 36.0526 13.8182C36.2003 13.8182 36.3215 13.8106 36.4162 13.7955C36.5109 13.7765 36.5866 13.7614 36.6435 13.75L36.9162 14.9545C36.8253 14.9886 36.6984 15.0227 36.5355 15.0568C36.3726 15.0947 36.1662 15.1136 35.9162 15.1136C35.5374 15.1136 35.1662 15.0322 34.8026 14.8693C34.4427 14.7064 34.1435 14.4583 33.9048 14.125C33.67 13.7917 33.5526 13.3712 33.5526 12.8636V4.18182ZM39.6378 18.2727C39.4105 18.2727 39.2079 18.2538 39.0298 18.2159C38.8518 18.1818 38.7287 18.1477 38.6605 18.1136L39.0014 16.9318C39.3272 17.0152 39.6151 17.0455 39.8651 17.0227C40.1151 17 40.3366 16.8883 40.5298 16.6875C40.7268 16.4905 40.9067 16.1705 41.0696 15.7273L41.3196 15.0455L38.0923 6.27273H39.5469L41.956 13.2273H42.0469L44.456 6.27273H45.9105L42.206 16.2727C42.0393 16.7235 41.8329 17.0966 41.5866 17.392C41.3404 17.6913 41.0545 17.9129 40.7287 18.0568C40.4067 18.2008 40.0431 18.2727 39.6378 18.2727ZM49.0213 3.36364V15H47.6804V3.36364H49.0213ZM55.1364 15.1818C54.2955 15.1818 53.5701 14.9962 52.9602 14.625C52.3542 14.25 51.8864 13.7273 51.5568 13.0568C51.2311 12.3826 51.0682 11.5985 51.0682 10.7045C51.0682 9.81061 51.2311 9.02273 51.5568 8.34091C51.8864 7.6553 52.3447 7.12121 52.9318 6.73864C53.5227 6.35227 54.2121 6.15909 55 6.15909C55.4545 6.15909 55.9034 6.23485 56.3466 6.38636C56.7898 6.53788 57.1932 6.78409 57.5568 7.125C57.9205 7.46212 58.2102 7.90909 58.4261 8.46591C58.642 9.02273 58.75 9.70833 58.75 10.5227V11.0909H52.0227V9.93182H57.3864C57.3864 9.43939 57.2879 9 57.0909 8.61364C56.8977 8.22727 56.6212 7.92235 56.2614 7.69886C55.9053 7.47538 55.4848 7.36364 55 7.36364C54.4659 7.36364 54.0038 7.49621 53.6136 7.76136C53.2273 8.02273 52.9299 8.36364 52.7216 8.78409C52.5133 9.20455 52.4091 9.6553 52.4091 10.1364V10.9091C52.4091 11.5682 52.5227 12.1269 52.75 12.5852C52.9811 13.0398 53.3011 13.3864 53.7102 13.625C54.1193 13.8598 54.5947 13.9773 55.1364 13.9773C55.4886 13.9773 55.8068 13.928 56.0909 13.8295C56.3788 13.7273 56.6269 13.5758 56.8352 13.375C57.0436 13.1705 57.2045 12.9167 57.3182 12.6136L58.6136 12.9773C58.4773 13.4167 58.2481 13.803 57.9261 14.1364C57.6042 14.4659 57.2064 14.7235 56.733 14.9091C56.2595 15.0909 55.7273 15.1818 55.1364 15.1818ZM65.4716 15V3.36364H69.5398C70.3504 3.36364 71.0189 3.50379 71.5455 3.78409C72.072 4.06061 72.464 4.43371 72.7216 4.90341C72.9792 5.36932 73.108 5.88636 73.108 6.45455C73.108 6.95455 73.0189 7.36742 72.8409 7.69318C72.6667 8.01894 72.4356 8.27652 72.1477 8.46591C71.8636 8.6553 71.5549 8.79545 71.2216 8.88636V9C71.5777 9.02273 71.9356 9.14773 72.2955 9.375C72.6553 9.60227 72.9564 9.92803 73.1989 10.3523C73.4413 10.7765 73.5625 11.2955 73.5625 11.9091C73.5625 12.4924 73.4299 13.017 73.1648 13.483C72.8996 13.9489 72.4811 14.3182 71.9091 14.5909C71.3371 14.8636 70.5928 15 69.6761 15H65.4716ZM66.8807 13.75H69.6761C70.5966 13.75 71.25 13.572 71.6364 13.2159C72.0265 12.8561 72.2216 12.4205 72.2216 11.9091C72.2216 11.5152 72.1212 11.1515 71.9205 10.8182C71.7197 10.4811 71.4337 10.2121 71.0625 10.0114C70.6913 9.80682 70.2519 9.70455 69.7443 9.70455H66.8807V13.75ZM66.8807 8.47727H69.4943C69.9186 8.47727 70.3011 8.39394 70.642 8.22727C70.9867 8.06061 71.2595 7.82576 71.4602 7.52273C71.6648 7.2197 71.767 6.86364 71.767 6.45455C71.767 5.94318 71.589 5.50947 71.233 5.15341C70.8769 4.79356 70.3125 4.61364 69.5398 4.61364H66.8807V8.47727Z" fill="black"/>
<rect y="23" width="14" height="14" fill="#D9D9D9"/>
<rect x="16" y="23" width="80" height="4" fill="#D9D9D9"/>
<rect x="16" y="30" width="80" height="2" fill="#D9D9D9"/>
<rect x="16" y="33" width="67" height="2" fill="#D9D9D9"/>
<rect y="41" width="14" height="14" fill="#D9D9D9"/>
<rect x="16" y="41" width="80" height="4" fill="#D9D9D9"/>
<rect x="16" y="48" width="80" height="2" fill="#D9D9D9"/>
<rect x="16" y="51" width="67" height="2" fill="#D9D9D9"/>
<rect y="59" width="14" height="14" fill="#D9D9D9"/>
<rect x="16" y="59" width="80" height="4" fill="#D9D9D9"/>
<rect x="16" y="66" width="80" height="2" fill="#D9D9D9"/>
<rect x="16" y="69" width="67" height="2" fill="#D9D9D9"/>
<rect y="77" width="14" height="14" fill="#D9D9D9"/>
<rect x="16" y="77" width="80" height="4" fill="#D9D9D9"/>
<rect x="16" y="84" width="80" height="2" fill="#D9D9D9"/>
<rect x="16" y="87" width="67" height="2" fill="#D9D9D9"/>
</svg>
