<svg width="96" height="91" viewBox="0 0 96 91" fill="none" xmlns="http://www.w3.org/2000/svg">
<path d="M29.1009 6.27273C29.0327 5.69697 28.7562 5.25 28.2713 4.93182C27.7865 4.61364 27.1918 4.45455 26.4872 4.45455C25.9721 4.45455 25.5213 4.53788 25.1349 4.70455C24.7524 4.87121 24.4531 5.10038 24.2372 5.39205C24.0251 5.68371 23.919 6.01515 23.919 6.38636C23.919 6.69697 23.9929 6.96401 24.1406 7.1875C24.2921 7.4072 24.4853 7.59091 24.7202 7.73864C24.955 7.88258 25.2012 8.00189 25.4588 8.09659C25.7164 8.1875 25.9531 8.26136 26.169 8.31818L27.3509 8.63636C27.6539 8.71591 27.991 8.82576 28.3622 8.96591C28.7372 9.10606 29.0952 9.29735 29.4361 9.53977C29.7808 9.77841 30.0649 10.0852 30.2884 10.4602C30.5118 10.8352 30.6236 11.2955 30.6236 11.8409C30.6236 12.4697 30.4588 13.0379 30.1293 13.5455C29.8035 14.053 29.3262 14.4564 28.6974 14.7557C28.0724 15.0549 27.313 15.2045 26.419 15.2045C25.5857 15.2045 24.8641 15.0701 24.2543 14.8011C23.6482 14.5322 23.1709 14.1572 22.8224 13.6761C22.4777 13.1951 22.2827 12.6364 22.2372 12H23.6918C23.7296 12.4394 23.8774 12.803 24.1349 13.0909C24.3963 13.375 24.7259 13.5871 25.1236 13.7273C25.5251 13.8636 25.9569 13.9318 26.419 13.9318C26.9569 13.9318 27.4399 13.8447 27.8679 13.6705C28.2959 13.4924 28.6349 13.2462 28.8849 12.9318C29.1349 12.6136 29.2599 12.2424 29.2599 11.8182C29.2599 11.4318 29.152 11.1174 28.9361 10.875C28.7202 10.6326 28.4361 10.4356 28.0838 10.2841C27.7315 10.1326 27.3509 10 26.9418 9.88636L25.5099 9.47727C24.6009 9.21591 23.8812 8.8428 23.3509 8.35795C22.8205 7.87311 22.5554 7.23864 22.5554 6.45455C22.5554 5.80303 22.7315 5.23485 23.0838 4.75C23.4399 4.26136 23.9171 3.88258 24.5156 3.61364C25.1179 3.34091 25.7902 3.20455 26.5327 3.20455C27.2827 3.20455 27.9493 3.33901 28.5327 3.60795C29.116 3.87311 29.5781 4.23674 29.919 4.69886C30.2637 5.16098 30.4455 5.68561 30.4645 6.27273H29.1009ZM36.554 6.27273V7.40909H32.0312V6.27273H36.554ZM33.3494 4.18182H34.6903V12.5C34.6903 12.8788 34.7453 13.1629 34.8551 13.3523C34.9688 13.5379 35.1127 13.6629 35.2869 13.7273C35.465 13.7879 35.6525 13.8182 35.8494 13.8182C35.9972 13.8182 36.1184 13.8106 36.2131 13.7955C36.3078 13.7765 36.3835 13.7614 36.4403 13.75L36.7131 14.9545C36.6222 14.9886 36.4953 15.0227 36.3324 15.0568C36.1695 15.0947 35.9631 15.1136 35.7131 15.1136C35.3343 15.1136 34.9631 15.0322 34.5994 14.8693C34.2396 14.7064 33.9403 14.4583 33.7017 14.125C33.4669 13.7917 33.3494 13.3712 33.3494 12.8636V4.18182ZM39.4347 18.2727C39.2074 18.2727 39.0047 18.2538 38.8267 18.2159C38.6487 18.1818 38.5256 18.1477 38.4574 18.1136L38.7983 16.9318C39.1241 17.0152 39.4119 17.0455 39.6619 17.0227C39.9119 17 40.1335 16.8883 40.3267 16.6875C40.5237 16.4905 40.7036 16.1705 40.8665 15.7273L41.1165 15.0455L37.8892 6.27273H39.3438L41.7528 13.2273H41.8438L44.2528 6.27273H45.7074L42.0028 16.2727C41.8362 16.7235 41.6297 17.0966 41.3835 17.392C41.1373 17.6913 40.8513 17.9129 40.5256 18.0568C40.2036 18.2008 39.84 18.2727 39.4347 18.2727ZM48.8182 3.36364V15H47.4773V3.36364H48.8182ZM54.9332 15.1818C54.0923 15.1818 53.367 14.9962 52.7571 14.625C52.151 14.25 51.6832 13.7273 51.3537 13.0568C51.0279 12.3826 50.8651 11.5985 50.8651 10.7045C50.8651 9.81061 51.0279 9.02273 51.3537 8.34091C51.6832 7.6553 52.1416 7.12121 52.7287 6.73864C53.3196 6.35227 54.009 6.15909 54.7969 6.15909C55.2514 6.15909 55.7003 6.23485 56.1435 6.38636C56.5866 6.53788 56.9901 6.78409 57.3537 7.125C57.7173 7.46212 58.0071 7.90909 58.223 8.46591C58.4389 9.02273 58.5469 9.70833 58.5469 10.5227V11.0909H51.8196V9.93182H57.1832C57.1832 9.43939 57.0848 9 56.8878 8.61364C56.6946 8.22727 56.4181 7.92235 56.0582 7.69886C55.7022 7.47538 55.2817 7.36364 54.7969 7.36364C54.2628 7.36364 53.8007 7.49621 53.4105 7.76136C53.0241 8.02273 52.7268 8.36364 52.5185 8.78409C52.3101 9.20455 52.206 9.6553 52.206 10.1364V10.9091C52.206 11.5682 52.3196 12.1269 52.5469 12.5852C52.7779 13.0398 53.098 13.3864 53.5071 13.625C53.9162 13.8598 54.3916 13.9773 54.9332 13.9773C55.2855 13.9773 55.6037 13.928 55.8878 13.8295C56.1757 13.7273 56.4238 13.5758 56.6321 13.375C56.8404 13.1705 57.0014 12.9167 57.1151 12.6136L58.4105 12.9773C58.2741 13.4167 58.045 13.803 57.723 14.1364C57.401 14.4659 57.0033 14.7235 56.5298 14.9091C56.0563 15.0909 55.5241 15.1818 54.9332 15.1818ZM65.7457 15H64.2685L68.5412 3.36364H69.9957L74.2685 15H72.7912L69.3139 5.20455H69.223L65.7457 15ZM66.2912 10.4545H72.2457V11.7045H66.2912V10.4545Z" fill="black"/>
<rect y="24" width="46" height="11" fill="#D9D9D9"/>
<rect y="37" width="46" height="2.66667" fill="#D9D9D9"/>
<rect y="41" width="27.3333" height="2.66667" fill="#D9D9D9"/>
<rect x="50" y="24" width="46" height="11" fill="#D9D9D9"/>
<rect x="50" y="37" width="46" height="2.66667" fill="#D9D9D9"/>
<rect x="50" y="41" width="27.3333" height="2.66667" fill="#D9D9D9"/>
<rect y="47.6667" width="46" height="11" fill="#D9D9D9"/>
<rect y="60.6667" width="46" height="2.66667" fill="#D9D9D9"/>
<rect y="64.6667" width="27.3333" height="2.66667" fill="#D9D9D9"/>
<rect x="50" y="47.6667" width="46" height="11" fill="#D9D9D9"/>
<rect x="50" y="60.6667" width="46" height="2.66667" fill="#D9D9D9"/>
<rect x="50" y="64.6667" width="27.3333" height="2.66667" fill="#D9D9D9"/>
<rect y="71.3333" width="46" height="11" fill="#D9D9D9"/>
<rect y="84.3333" width="46" height="2.66667" fill="#D9D9D9"/>
<rect y="88.3333" width="27.3333" height="2.66667" fill="#D9D9D9"/>
<rect x="50" y="71.3333" width="46" height="11" fill="#D9D9D9"/>
<rect x="50" y="84.3333" width="46" height="2.66667" fill="#D9D9D9"/>
<rect x="50" y="88.3333" width="27.3333" height="2.66667" fill="#D9D9D9"/>
</svg>
