<svg width="96" height="91" viewBox="0 0 96 91" fill="none" xmlns="http://www.w3.org/2000/svg">
<path d="M30.0384 7H28.6293C28.5459 6.5947 28.4001 6.23864 28.1918 5.93182C27.9872 5.625 27.7372 5.36742 27.4418 5.15909C27.1501 4.94697 26.8262 4.78788 26.4702 4.68182C26.1141 4.57576 25.7429 4.52273 25.3565 4.52273C24.652 4.52273 24.0137 4.70076 23.4418 5.05682C22.8736 5.41288 22.4209 5.9375 22.0838 6.63068C21.7505 7.32386 21.5838 8.17424 21.5838 9.18182C21.5838 10.1894 21.7505 11.0398 22.0838 11.733C22.4209 12.4261 22.8736 12.9508 23.4418 13.3068C24.0137 13.6629 24.652 13.8409 25.3565 13.8409C25.7429 13.8409 26.1141 13.7879 26.4702 13.6818C26.8262 13.5758 27.1501 13.4186 27.4418 13.2102C27.7372 12.9981 27.9872 12.7386 28.1918 12.4318C28.4001 12.1212 28.5459 11.7652 28.6293 11.3636H30.0384C29.9323 11.9583 29.7391 12.4905 29.4588 12.9602C29.1785 13.4299 28.83 13.8295 28.4134 14.1591C27.9967 14.4848 27.5289 14.733 27.0099 14.9034C26.4948 15.0739 25.9437 15.1591 25.3565 15.1591C24.3641 15.1591 23.4815 14.9167 22.7088 14.4318C21.9361 13.947 21.3281 13.2576 20.8849 12.3636C20.4418 11.4697 20.2202 10.4091 20.2202 9.18182C20.2202 7.95455 20.4418 6.89394 20.8849 6C21.3281 5.10606 21.9361 4.41667 22.7088 3.93182C23.4815 3.44697 24.3641 3.20455 25.3565 3.20455C25.9437 3.20455 26.4948 3.28977 27.0099 3.46023C27.5289 3.63068 27.9967 3.88068 28.4134 4.21023C28.83 4.53598 29.1785 4.93371 29.4588 5.40341C29.7391 5.86932 29.9323 6.40151 30.0384 7ZM37.6335 11.4318V6.27273H38.9744V15H37.6335V13.5227H37.5426C37.3381 13.9659 37.0199 14.3428 36.5881 14.6534C36.1563 14.9602 35.6108 15.1136 34.9517 15.1136C34.4062 15.1136 33.9214 14.9943 33.4972 14.7557C33.0729 14.5133 32.7396 14.1496 32.4972 13.6648C32.2547 13.1761 32.1335 12.5606 32.1335 11.8182V6.27273H33.4744V11.7273C33.4744 12.3636 33.6525 12.8712 34.0085 13.25C34.3684 13.6288 34.8267 13.8182 35.3835 13.8182C35.7169 13.8182 36.0559 13.733 36.4006 13.5625C36.7491 13.392 37.0407 13.1307 37.2756 12.7784C37.5142 12.4261 37.6335 11.9773 37.6335 11.4318ZM47.6122 8.22727L46.4077 8.56818C46.3319 8.36742 46.2202 8.17235 46.0724 7.98295C45.9285 7.78977 45.7315 7.63068 45.4815 7.50568C45.2315 7.38068 44.9115 7.31818 44.5213 7.31818C43.9872 7.31818 43.5421 7.44129 43.1861 7.6875C42.8338 7.92992 42.6577 8.23864 42.6577 8.61364C42.6577 8.94697 42.7789 9.21023 43.0213 9.40341C43.2637 9.59659 43.6425 9.75758 44.1577 9.88636L45.4531 10.2045C46.2334 10.3939 46.8149 10.6837 47.1974 11.0739C47.58 11.4602 47.7713 11.9583 47.7713 12.5682C47.7713 13.0682 47.6274 13.5152 47.3395 13.9091C47.0554 14.303 46.6577 14.6136 46.1463 14.8409C45.6349 15.0682 45.0402 15.1818 44.3622 15.1818C43.4721 15.1818 42.7353 14.9886 42.152 14.6023C41.5687 14.2159 41.1993 13.6515 41.044 12.9091L42.3168 12.5909C42.438 13.0606 42.6671 13.4129 43.0043 13.6477C43.3452 13.8826 43.7902 14 44.3395 14C44.9645 14 45.4607 13.8674 45.8281 13.6023C46.1993 13.3333 46.3849 13.0114 46.3849 12.6364C46.3849 12.3333 46.2789 12.0795 46.0668 11.875C45.8546 11.6667 45.5289 11.5114 45.0895 11.4091L43.6349 11.0682C42.8357 10.8788 42.2486 10.5852 41.8736 10.1875C41.5024 9.78598 41.3168 9.28409 41.3168 8.68182C41.3168 8.18939 41.455 7.75379 41.7315 7.375C42.0118 6.99621 42.3925 6.69886 42.8736 6.48295C43.3584 6.26705 43.9077 6.15909 44.5213 6.15909C45.3849 6.15909 46.063 6.34848 46.5554 6.72727C47.0516 7.10606 47.4039 7.60606 47.6122 8.22727ZM53.5852 6.27273V7.40909H49.0625V6.27273H53.5852ZM50.3807 4.18182H51.7216V12.5C51.7216 12.8788 51.7765 13.1629 51.8864 13.3523C52 13.5379 52.1439 13.6629 52.3182 13.7273C52.4962 13.7879 52.6837 13.8182 52.8807 13.8182C53.0284 13.8182 53.1496 13.8106 53.2443 13.7955C53.339 13.7765 53.4148 13.7614 53.4716 13.75L53.7443 14.9545C53.6534 14.9886 53.5265 15.0227 53.3636 15.0568C53.2008 15.0947 52.9943 15.1136 52.7443 15.1136C52.3655 15.1136 51.9943 15.0322 51.6307 14.8693C51.2708 14.7064 50.9716 14.4583 50.733 14.125C50.4981 13.7917 50.3807 13.3712 50.3807 12.8636V4.18182ZM59.054 15.1818C58.2661 15.1818 57.5748 14.9943 56.9801 14.6193C56.3892 14.2443 55.9271 13.7197 55.5938 13.0455C55.2642 12.3712 55.0994 11.5833 55.0994 10.6818C55.0994 9.77273 55.2642 8.97917 55.5938 8.30114C55.9271 7.62311 56.3892 7.09659 56.9801 6.72159C57.5748 6.34659 58.2661 6.15909 59.054 6.15909C59.8419 6.15909 60.5313 6.34659 61.1222 6.72159C61.7169 7.09659 62.179 7.62311 62.5085 8.30114C62.8419 8.97917 63.0085 9.77273 63.0085 10.6818C63.0085 11.5833 62.8419 12.3712 62.5085 13.0455C62.179 13.7197 61.7169 14.2443 61.1222 14.6193C60.5313 14.9943 59.8419 15.1818 59.054 15.1818ZM59.054 13.9773C59.6525 13.9773 60.1449 13.8239 60.5312 13.517C60.9176 13.2102 61.2036 12.8068 61.3892 12.3068C61.5748 11.8068 61.6676 11.2652 61.6676 10.6818C61.6676 10.0985 61.5748 9.55492 61.3892 9.05114C61.2036 8.54735 60.9176 8.14015 60.5312 7.82955C60.1449 7.51894 59.6525 7.36364 59.054 7.36364C58.4555 7.36364 57.9631 7.51894 57.5767 7.82955C57.1903 8.14015 56.9044 8.54735 56.7188 9.05114C56.5331 9.55492 56.4403 10.0985 56.4403 10.6818C56.4403 11.2652 56.5331 11.8068 56.7188 12.3068C56.9044 12.8068 57.1903 13.2102 57.5767 13.517C57.9631 13.8239 58.4555 13.9773 59.054 13.9773ZM65.0554 15V6.27273H66.3509V7.63636H66.4645C66.6463 7.17045 66.9399 6.80871 67.3452 6.55114C67.7505 6.28977 68.2372 6.15909 68.8054 6.15909C69.3812 6.15909 69.8603 6.28977 70.2429 6.55114C70.6293 6.80871 70.9304 7.17045 71.1463 7.63636H71.2372C71.4607 7.18561 71.7959 6.82765 72.2429 6.5625C72.6899 6.29356 73.2259 6.15909 73.8509 6.15909C74.6312 6.15909 75.2694 6.40341 75.7656 6.89205C76.2618 7.37689 76.5099 8.13258 76.5099 9.15909V15H75.169V9.15909C75.169 8.51515 74.9929 8.05492 74.6406 7.77841C74.2884 7.50189 73.8736 7.36364 73.3963 7.36364C72.7827 7.36364 72.3073 7.54924 71.9702 7.92045C71.633 8.28788 71.4645 8.75379 71.4645 9.31818V15H70.1009V9.02273C70.1009 8.52652 69.9399 8.12689 69.6179 7.82386C69.2959 7.51705 68.8812 7.36364 68.3736 7.36364C68.0251 7.36364 67.6993 7.45644 67.3963 7.64205C67.0971 7.82765 66.8546 8.08523 66.669 8.41477C66.4872 8.74053 66.3963 9.11742 66.3963 9.54545V15H65.0554Z" fill="black"/>
<rect y="23" width="96" height="68" fill="#D9D9D9"/>
<path d="M36.7152 56.9806V56.0715L44.0334 52.3443V53.7988L38.4197 56.5034L38.4652 56.4124V56.6397L38.4197 56.5488L44.0334 59.2534V60.7079L36.7152 56.9806ZM50.9893 48.8897L47.2393 62.8215H46.0121L49.7621 48.8897H50.9893ZM60.2834 56.9806L52.9652 60.7079V59.2534L58.5788 56.5488L58.5334 56.6397V56.4124L58.5788 56.5034L52.9652 53.7988V52.3443L60.2834 56.0715V56.9806Z" fill="#808080"/>
</svg>
