<svg width="100" height="30" viewBox="0 0 100 30" fill="none" xmlns="http://www.w3.org/2000/svg">
<g clip-path="url(#clip0_2002_3327)">
<mask id="mask0_2002_3327" style="mask-type:luminance" maskUnits="userSpaceOnUse" x="0" y="7" width="100" height="16">
<path d="M0 7.16667H100V22.8333H0V7.16667Z" fill="white"/>
</mask>
<g mask="url(#mask0_2002_3327)">
<path d="M20.5967 22.2653H18.7607L22.2407 7.41767H24.058L20.5987 22.2653H20.5967ZM29.1367 22.2653H23.0053L26.51 7.41767H28.346L25.2293 20.6037H29.5207L29.1367 22.2653ZM33.9453 16.524L32.6207 22.2653H30.762L32.1077 16.4807L31.083 7.41767H32.942L33.476 14.6523L37.4693 7.41767H39.541L33.9453 16.524ZM75.0633 9.07934H72.372L69.464 22.2653H67.6053L70.5133 9.07934H67.5653L67.972 7.41767H75.47L75.0633 9.07934ZM75.003 22.2653H73.357L76.649 7.41767H78.464L75.195 22.2653H75.003ZM87.0017 11.5947L85.3783 18.88C85.158 19.911 84.85 20.6483 84.451 21.1743C83.8427 21.9957 82.8467 22.3963 81.4993 22.3963C79.2773 22.3963 78.004 21.427 77.9793 19.765C77.9717 19.2803 78.0307 18.8387 78.2093 18.0397L79.8323 10.7543C80.372 8.28967 81.638 7.17234 83.839 7.17234C86.0397 7.17234 87.186 8.18301 87.2107 9.86734C87.2183 10.352 87.1593 10.8573 86.9997 11.5927H87.0017V11.5947ZM83.7553 8.73134C83.1147 8.73134 82.6263 8.94101 82.2917 9.36201C82.018 9.69867 81.8773 10.1407 81.674 11.0033L80.051 18.33C79.9503 18.7713 79.893 19.1923 79.897 19.5087C79.9103 20.394 80.4937 20.8767 81.4973 20.8767C82.5653 20.8767 83.1337 20.2667 83.474 18.7507L85.118 11.5083C85.2777 10.7917 85.3383 10.455 85.3327 10.1183C85.3193 9.21234 84.757 8.72767 83.7513 8.72767H83.7533L83.7553 8.73134ZM40.9643 7.43267H44.0413L44.887 15.946C45.0393 17.587 45.1247 18.912 45.235 20.7047H45.2787C45.9933 18.9347 46.6017 17.5907 47.4017 15.9457L51.602 7.43267H54.723L53.056 22.2597H51.0187L52.081 13.4063C52.2767 11.8063 52.4933 10.44 52.754 8.79901L52.71 8.77634C51.9727 10.3763 51.3227 11.7837 50.5227 13.4063L46.2327 22.2597H43.61L42.787 13.4063C42.635 11.8063 42.5267 10.3763 42.4183 8.79901H42.3763C42.0097 10.3763 41.6617 11.7857 41.2057 13.4063L38.8223 22.2597H36.7637L40.9643 7.43334V7.43267ZM66.893 14.8377C65.7923 20.5323 63.3977 22.529 59.621 22.529C56.6427 22.529 55.0023 21.2547 55.0023 17.9813C55.0023 17.0027 55.109 16.0463 55.3483 14.858C56.4927 9.16534 58.8457 7.16667 62.643 7.16667C65.5987 7.16667 67.2617 8.44101 67.2617 11.7143C67.2617 12.693 67.1323 13.6493 66.8947 14.8377H66.893ZM62.4037 8.74067C59.944 8.74067 58.283 10.335 57.3763 14.901C57.1387 15.9623 57.0097 17.0043 57.0097 17.856C57.0097 20.0643 57.958 20.957 59.8357 20.957C62.318 20.957 63.9563 19.3627 64.8857 14.7963C65.1023 13.7353 65.2527 12.693 65.2527 11.8413C65.2527 9.65201 64.3043 8.74067 62.4037 8.74067ZM6.521 7.41401C6.16933 7.41401 3.09233 7.46467 3.09233 7.46467L0 22.2897H1.45767V22.288C2.28833 22.2803 2.59633 22.2973 3.40767 22.2973C7.19967 22.2973 9.6 20.596 10.7043 14.92H10.7063C10.944 13.7357 11.075 12.7833 11.075 11.808C11.075 8.54434 9.49 7.41401 6.521 7.41401ZM8.85333 14.9147C7.92 19.4657 6.426 20.5063 3.93433 20.5193C3.06367 20.523 2.866 20.5157 2.20667 20.506L4.573 9.06667V9.07067C5.31433 9.05367 5.489 9.04634 6.16967 9.05367C8.07767 9.07034 9.222 9.79101 9.222 11.973C9.222 12.8207 9.072 13.8597 8.85533 14.9167L8.85333 14.915V14.9147ZM98.1393 7.41401L95.201 20.714L93.019 7.41401H89.9477L86.608 22.271H88.5393L91.4757 8.74267L93.6403 22.271H96.6797L100 7.41401H98.1393ZM15.9217 7.41867L9.81333 22.2667H11.7767L12.8887 19.4913L13.5937 17.7677L13.8427 17.1013H15.903L15.8363 17.7677L15.6863 19.493L15.4733 22.2683H17.3323L18.4833 7.41867H15.92H15.9217ZM14.4943 15.3553L16.8607 8.76667L16.0813 15.3557L14.4943 15.3553Z" fill="#0D0D0D"/>
</g>
</g>
<defs>
<clipPath id="clip0_2002_3327">
<rect width="100" height="15.6667" fill="white" transform="translate(0 7.16667)"/>
</clipPath>
</defs>
</svg>
