<svg width="101" height="30" viewBox="0 0 101 30" fill="none" xmlns="http://www.w3.org/2000/svg">
<g clip-path="url(#clip0_2002_3411)">
<path d="M8.32413 8.34688C7.14679 8.34688 6.8064 8.86968 6.8064 10.0228V11.9356H9.94679L9.63202 15.026H6.80762V24.4047H3.03891V15.026H0.5V11.9356H3.03891V10.0753C3.03891 6.95804 4.29433 5.31147 7.79707 5.31147C8.53105 5.30975 9.26454 5.35336 9.99315 5.44216V8.35054L8.32413 8.34688Z" fill="#1877F2"/>
<path d="M10.2079 17.7768C10.2079 14.2931 11.8562 11.6693 15.3101 11.6693C17.1938 11.6693 18.3443 12.6392 18.8946 13.8436V11.9356H22.5047V24.4046H18.8946V22.5187C18.3712 23.7243 17.1938 24.6673 15.3101 24.6673C11.8562 24.6673 10.2079 22.0472 10.2079 18.5598V17.7768ZM13.9754 18.616C13.9754 20.4751 14.6549 21.7064 16.4081 21.7064C17.9527 21.7064 18.7372 20.5801 18.7372 18.7992V17.5472C18.7372 15.7662 17.9527 14.64 16.4081 14.64C14.6549 14.64 13.9754 15.8713 13.9754 17.7304V18.616Z" fill="#1877F2"/>
<path d="M30.3544 11.673C31.8185 11.673 33.2057 11.9881 33.9645 12.5109L33.1276 15.1836C32.3426 14.8093 31.4849 14.6124 30.6155 14.607C28.5744 14.607 27.6874 15.7858 27.6874 17.8037V18.5366C27.6874 20.5545 28.5768 21.7332 30.6155 21.7332C31.4849 21.7277 32.3426 21.531 33.1276 21.1567L33.9645 23.8281C33.2057 24.3521 31.8197 24.6673 30.3544 24.6673C25.9318 24.6673 23.9175 22.2829 23.9175 18.4584V17.8819C23.9175 14.0574 25.9318 11.673 30.3544 11.673Z" fill="#1877F2"/>
<path d="M34.4611 18.6465V17.5472C34.4611 14.011 36.4753 11.684 40.5845 11.684C44.4569 11.684 46.1576 14.0415 46.1576 17.4995V19.4906H38.2273C38.3066 21.1933 39.0655 21.9531 41.1554 21.9531C42.5695 21.9531 44.0604 21.6648 45.1596 21.1933L45.8489 23.7768C44.8546 24.3021 42.8135 24.6942 41.009 24.6942C36.2399 24.6929 34.4611 22.311 34.4611 18.6465ZM38.2286 17.0219H42.7817V16.708C42.7817 15.346 42.2327 14.265 40.5857 14.265C38.8837 14.2662 38.2286 15.3412 38.2286 17.0171V17.0219Z" fill="#1877F2"/>
<path d="M60.1234 18.5635C60.1234 22.0472 58.4495 24.6709 54.9992 24.6709C53.1155 24.6709 51.8076 23.7279 51.2842 22.5223V24.4083H47.7266V5.67425L51.4941 5.33223V13.6628C52.0431 12.5635 53.2473 11.6718 55.0005 11.6718C58.4544 11.6718 60.1246 14.2919 60.1246 17.7793L60.1234 18.5635ZM56.3559 17.6986C56.3559 15.9434 55.6764 14.6339 53.8707 14.6339C52.3261 14.6339 51.4892 15.7333 51.4892 17.5154V18.8249C51.4892 20.6058 52.3261 21.7064 53.8707 21.7064C55.6764 21.7064 56.3559 20.3969 56.3559 18.6416V17.6986Z" fill="#1877F2"/>
<path d="M61.3838 18.4841V17.8562C61.3838 14.2662 63.4249 11.673 67.5853 11.673C71.7456 11.673 73.788 14.2662 73.788 17.8562V18.4841C73.788 22.0728 71.7468 24.6673 67.5865 24.6673C63.4261 24.6673 61.3838 22.0728 61.3838 18.4841ZM70.0193 17.5936C70.0193 15.9434 69.3385 14.6339 67.5792 14.6339C65.8199 14.6339 65.1452 15.9434 65.1452 17.5936V18.7467C65.1452 20.3969 65.826 21.7064 67.5792 21.7064C69.3324 21.7064 70.0193 20.3969 70.0193 18.7467V17.5936Z" fill="#1877F2"/>
<path d="M75.0409 18.4841V17.8562C75.0409 14.2662 77.082 11.673 81.2424 11.673C85.4027 11.673 87.4438 14.2662 87.4438 17.8562V18.4841C87.4438 22.0728 85.4027 24.6673 81.2424 24.6673C77.082 24.6673 75.0409 22.0728 75.0409 18.4841ZM83.6763 17.5936C83.6763 15.9434 82.9956 14.6339 81.2424 14.6339C79.4892 14.6339 78.8096 15.9434 78.8096 17.5936V18.7467C78.8096 20.3969 79.4892 21.7064 81.2424 21.7064C82.9956 21.7064 83.6763 20.3969 83.6763 18.7467V17.5936Z" fill="#1877F2"/>
<path d="M92.6242 17.8819L96.3392 11.9356H100.342L96.4441 18.092L100.5 24.4047H96.4966L92.6242 18.2972V24.4047H88.8555V5.67425L92.6242 5.33223V17.8819Z" fill="#1877F2"/>
</g>
<defs>
<clipPath id="clip0_2002_3411">
<rect width="100" height="19.3772" fill="white" transform="translate(0.5 5.31142)"/>
</clipPath>
</defs>
</svg>
