<svg width="100" height="30" viewBox="0 0 100 30" fill="none" xmlns="http://www.w3.org/2000/svg">
<path d="M6.84783 4.74645C6.80806 4.34541 6.63737 4.03385 6.33576 3.81179C6.03415 3.58972 5.62482 3.47869 5.10778 3.47869C4.75645 3.47869 4.45981 3.52841 4.21786 3.62784C3.97591 3.72396 3.79031 3.85819 3.66104 4.03054C3.5351 4.20289 3.47212 4.39844 3.47212 4.61719C3.46549 4.79948 3.50361 4.95857 3.58647 5.09446C3.67264 5.23035 3.79031 5.34801 3.93945 5.44744C4.0886 5.54356 4.26095 5.62808 4.4565 5.70099C4.65205 5.7706 4.86085 5.83026 5.08292 5.87997L5.99769 6.09872C6.44182 6.19815 6.84949 6.33073 7.2207 6.49645C7.59192 6.66217 7.91341 6.866 8.18519 7.10795C8.45697 7.34991 8.66744 7.63494 8.81658 7.96307C8.96905 8.29119 9.04693 8.66738 9.05025 9.09162C9.04693 9.71473 8.88784 10.255 8.57298 10.7124C8.26142 11.1664 7.81067 11.5194 7.2207 11.7713C6.63406 12.0199 5.92643 12.1442 5.09783 12.1442C4.27586 12.1442 3.55996 12.0182 2.95011 11.7663C2.34357 11.5144 1.86961 11.1416 1.52823 10.6477C1.19016 10.1506 1.01284 9.53575 0.996271 8.80327H3.07937C3.10257 9.14465 3.20034 9.42969 3.37269 9.65838C3.54835 9.88376 3.78202 10.0545 4.07369 10.1705C4.36867 10.2831 4.70176 10.3395 5.07298 10.3395C5.43756 10.3395 5.75408 10.2865 6.02255 10.1804C6.29433 10.0743 6.50479 9.92685 6.65394 9.73793C6.80309 9.54901 6.87766 9.33191 6.87766 9.08665C6.87766 8.85795 6.80972 8.66572 6.67383 8.50994C6.54125 8.35417 6.3457 8.22159 6.08718 8.11222C5.83197 8.00284 5.51876 7.90341 5.14755 7.81392L4.03889 7.53551C3.18046 7.3267 2.50266 7.00024 2.0055 6.55611C1.50835 6.11198 1.26142 5.51373 1.26474 4.76136C1.26142 4.14489 1.42549 3.6063 1.75692 3.1456C2.09168 2.6849 2.55072 2.32528 3.13406 2.06676C3.71739 1.80824 4.38027 1.67898 5.12269 1.67898C5.87837 1.67898 6.53794 1.80824 7.10139 2.06676C7.66815 2.32528 8.10896 2.6849 8.42383 3.1456C8.7387 3.6063 8.9011 4.13991 8.91104 4.74645H6.84783ZM10.4982 12V1.81818H17.359V3.59304H12.6509V6.01918H17.006V7.79403H12.6509V10.2251H17.3789V12H10.4982ZM19.0705 12V1.81818H21.2232V10.2251H25.5882V12H19.0705ZM27.0138 12V1.81818H33.7553V3.59304H29.1665V6.01918H33.3079V7.79403H29.1665V12H27.0138ZM39.9213 6.06889V7.74929H35.2779V6.06889H39.9213ZM41.7658 12V1.81818H43.9185V6.01918H48.2885V1.81818H50.4363V12H48.2885V7.79403H43.9185V12H41.7658ZM61.5676 6.90909C61.5676 8.01941 61.3572 8.96402 60.9363 9.7429C60.5186 10.5218 59.9486 11.1167 59.226 11.5277C58.5068 11.9354 57.6981 12.1392 56.7999 12.1392C55.8951 12.1392 55.083 11.9337 54.3638 11.5227C53.6446 11.1117 53.0762 10.5168 52.6586 9.73793C52.2409 8.95904 52.0321 8.0161 52.0321 6.90909C52.0321 5.79877 52.2409 4.85417 52.6586 4.07528C53.0762 3.2964 53.6446 2.70312 54.3638 2.29545C55.083 1.88447 55.8951 1.67898 56.7999 1.67898C57.6981 1.67898 58.5068 1.88447 59.226 2.29545C59.9486 2.70312 60.5186 3.2964 60.9363 4.07528C61.3572 4.85417 61.5676 5.79877 61.5676 6.90909ZM59.3851 6.90909C59.3851 6.18987 59.2774 5.58333 59.062 5.08949C58.8498 4.59564 58.5499 4.22112 58.1621 3.96591C57.7743 3.7107 57.3203 3.5831 56.7999 3.5831C56.2795 3.5831 55.8255 3.7107 55.4377 3.96591C55.0499 4.22112 54.7483 4.59564 54.5328 5.08949C54.3207 5.58333 54.2147 6.18987 54.2147 6.90909C54.2147 7.62831 54.3207 8.23485 54.5328 8.72869C54.7483 9.22254 55.0499 9.59706 55.4377 9.85227C55.8255 10.1075 56.2795 10.2351 56.7999 10.2351C57.3203 10.2351 57.7743 10.1075 58.1621 9.85227C58.5499 9.59706 58.8498 9.22254 59.062 8.72869C59.2774 8.23485 59.3851 7.62831 59.3851 6.90909ZM68.6857 4.74645C68.646 4.34541 68.4753 4.03385 68.1737 3.81179C67.872 3.58972 67.4627 3.47869 66.9457 3.47869C66.5943 3.47869 66.2977 3.52841 66.0558 3.62784C65.8138 3.72396 65.6282 3.85819 65.4989 4.03054C65.373 4.20289 65.31 4.39844 65.31 4.61719C65.3034 4.79948 65.3415 4.95857 65.4244 5.09446C65.5105 5.23035 65.6282 5.34801 65.7773 5.44744C65.9265 5.54356 66.0988 5.62808 66.2944 5.70099C66.4899 5.7706 66.6987 5.83026 66.9208 5.87997L67.8356 6.09872C68.2797 6.19815 68.6874 6.33073 69.0586 6.49645C69.4298 6.66217 69.7513 6.866 70.0231 7.10795C70.2949 7.34991 70.5053 7.63494 70.6545 7.96307C70.8069 8.29119 70.8848 8.66738 70.8881 9.09162C70.8848 9.71473 70.7257 10.255 70.4109 10.7124C70.0993 11.1664 69.6486 11.5194 69.0586 11.7713C68.4719 12.0199 67.7643 12.1442 66.9357 12.1442C66.1138 12.1442 65.3978 12.0182 64.788 11.7663C64.1815 11.5144 63.7075 11.1416 63.3661 10.6477C63.0281 10.1506 62.8507 9.53575 62.8342 8.80327H64.9173C64.9405 9.14465 65.0382 9.42969 65.2106 9.65838C65.3862 9.88376 65.6199 10.0545 65.9116 10.1705C66.2066 10.2831 66.5397 10.3395 66.9109 10.3395C67.2754 10.3395 67.592 10.2865 67.8604 10.1804C68.1322 10.0743 68.3427 9.92685 68.4918 9.73793C68.641 9.54901 68.7156 9.33191 68.7156 9.08665C68.7156 8.85795 68.6476 8.66572 68.5117 8.50994C68.3791 8.35417 68.1836 8.22159 67.9251 8.11222C67.6699 8.00284 67.3567 7.90341 66.9854 7.81392L65.8768 7.53551C65.0183 7.3267 64.3406 7.00024 63.8434 6.55611C63.3462 6.11198 63.0993 5.51373 63.1026 4.76136C63.0993 4.14489 63.2634 3.6063 63.5948 3.1456C63.9296 2.6849 64.3886 2.32528 64.9719 2.06676C65.5553 1.80824 66.2182 1.67898 66.9606 1.67898C67.7163 1.67898 68.3758 1.80824 68.9393 2.06676C69.506 2.32528 69.9469 2.6849 70.2617 3.1456C70.5766 3.6063 70.739 4.13991 70.7489 4.74645H68.6857ZM71.9483 3.59304V1.81818H80.3105V3.59304H77.1934V12H75.0655V3.59304H71.9483ZM81.6877 12V1.81818H88.5485V3.59304H83.8404V6.01918H88.1955V7.79403H83.8404V10.2251H88.5684V12H81.6877ZM93.8693 12H90.2599V1.81818H93.8991C94.9233 1.81818 95.8049 2.02202 96.544 2.42969C97.2831 2.83404 97.8516 3.41572 98.2493 4.17472C98.6503 4.93371 98.8509 5.84186 98.8509 6.89915C98.8509 7.95975 98.6503 8.87121 98.2493 9.63352C97.8516 10.3958 97.2798 10.9808 96.5341 11.3885C95.7917 11.7962 94.9034 12 93.8693 12ZM92.4126 10.1555H93.7798C94.4162 10.1555 94.9515 10.0429 95.3857 9.81747C95.8232 9.58878 96.1513 9.2358 96.37 8.75852C96.5921 8.27794 96.7031 7.65814 96.7031 6.89915C96.7031 6.14678 96.5921 5.53196 96.37 5.05469C96.1513 4.57741 95.8248 4.22609 95.3906 4.00071C94.9564 3.77533 94.4212 3.66264 93.7848 3.66264H92.4126V10.1555ZM30.6717 18.8182L33.1326 26.554H33.2271L35.693 18.8182H38.0794L34.5694 29H31.7953L28.2804 18.8182H30.6717ZM41.4576 18.8182V29H39.3049V18.8182H41.4576ZM46.8381 29H43.2287V18.8182H46.8679C47.892 18.8182 48.7737 19.022 49.5128 19.4297C50.2519 19.834 50.8203 20.4157 51.218 21.1747C51.6191 21.9337 51.8196 22.8419 51.8196 23.8991C51.8196 24.9598 51.6191 25.8712 51.218 26.6335C50.8203 27.3958 50.2486 27.9808 49.5028 28.3885C48.7604 28.7962 47.8722 29 46.8381 29ZM45.3814 27.1555H46.7486C47.3849 27.1555 47.9202 27.0429 48.3544 26.8175C48.7919 26.5888 49.12 26.2358 49.3388 25.7585C49.5608 25.2779 49.6719 24.6581 49.6719 23.8991C49.6719 23.1468 49.5608 22.532 49.3388 22.0547C49.12 21.5774 48.7936 21.2261 48.3594 21.0007C47.9252 20.7753 47.3899 20.6626 46.7536 20.6626H45.3814V27.1555ZM53.4142 29V18.8182H60.275V20.593H55.5669V23.0192H59.9221V24.794H55.5669V27.2251H60.2949V29H53.4142ZM71.343 23.9091C71.343 25.0194 71.1326 25.964 70.7116 26.7429C70.294 27.5218 69.724 28.1167 69.0014 28.5277C68.2822 28.9354 67.4735 29.1392 66.5753 29.1392C65.6705 29.1392 64.8584 28.9337 64.1392 28.5227C63.42 28.1117 62.8516 27.5168 62.4339 26.7379C62.0163 25.959 61.8075 25.0161 61.8075 23.9091C61.8075 22.7988 62.0163 21.8542 62.4339 21.0753C62.8516 20.2964 63.42 19.7031 64.1392 19.2955C64.8584 18.8845 65.6705 18.679 66.5753 18.679C67.4735 18.679 68.2822 18.8845 69.0014 19.2955C69.724 19.7031 70.294 20.2964 70.7116 21.0753C71.1326 21.8542 71.343 22.7988 71.343 23.9091ZM69.1605 23.9091C69.1605 23.1899 69.0528 22.5833 68.8374 22.0895C68.6252 21.5956 68.3253 21.2211 67.9375 20.9659C67.5497 20.7107 67.0956 20.5831 66.5753 20.5831C66.0549 20.5831 65.6009 20.7107 65.2131 20.9659C64.8253 21.2211 64.5237 21.5956 64.3082 22.0895C64.0961 22.5833 63.9901 23.1899 63.9901 23.9091C63.9901 24.6283 64.0961 25.2348 64.3082 25.7287C64.5237 26.2225 64.8253 26.5971 65.2131 26.8523C65.6009 27.1075 66.0549 27.2351 66.5753 27.2351C67.0956 27.2351 67.5497 27.1075 67.9375 26.8523C68.3253 26.5971 68.6252 26.2225 68.8374 25.7287C69.0528 25.2348 69.1605 24.6283 69.1605 23.9091Z" fill="black"/>
</svg>