<svg width="101" height="30" viewBox="0 0 101 30" fill="none" xmlns="http://www.w3.org/2000/svg">
<g clip-path="url(#clip0_2002_3337)">
<path d="M22.9572 14.1886C22.8586 16.3476 21.3472 19.3053 18.4258 23.0586C15.4058 26.9789 12.85 28.9397 10.7586 28.9397C9.46432 28.9397 8.36861 27.7461 7.47289 25.3574C6.87575 23.1685 6.27718 20.9809 5.68004 18.7919C5.01575 16.4047 4.30289 15.2096 3.54004 15.2096C3.37432 15.2096 2.79146 15.559 1.79575 16.2549L0.751465 14.9102C1.84718 13.949 2.92861 12.9864 3.99289 12.0224C5.45575 10.7618 6.55289 10.0972 7.28575 10.0302C9.01432 9.86477 10.0786 11.0455 10.4786 13.5711C10.91 16.2977 11.2086 17.9933 11.3757 18.6564C11.8743 20.9181 12.4229 22.0476 13.0215 22.0476C13.4872 22.0476 14.1858 21.3132 15.1172 19.8472C16.0472 18.3798 16.5458 17.2632 16.6129 16.4974C16.7458 15.231 16.2472 14.5964 15.1172 14.5964C14.5843 14.5964 14.0358 14.7176 13.4729 14.9601C14.5643 11.3892 16.65 9.65372 19.73 9.75211C22.0129 9.81914 23.0886 11.298 22.9572 14.1886Z" fill="#1AB7EA"/>
<path d="M32.33 3.47462C32.2971 4.30173 31.8814 5.09462 31.0814 5.85471C30.1843 6.71319 29.12 7.14244 27.89 7.14244C25.9943 7.14244 25.0786 6.31675 25.1457 4.66538C25.1771 3.80689 25.6857 2.97978 26.6657 2.18689C27.6471 1.39543 28.7357 0.997559 29.9343 0.997559C30.6328 0.997559 31.2143 1.27136 31.6814 1.81611C32.1457 2.36087 32.3628 2.91418 32.33 3.47462ZM36.67 21.1848C35.7386 22.9417 34.4586 24.5346 32.8286 25.9607C30.6 27.8844 28.3728 28.847 26.1443 28.847C25.1114 28.847 24.3228 28.5147 23.7743 27.8502C23.2257 27.1871 22.9671 26.3257 23.0014 25.2633C23.0328 24.1695 23.3743 22.4768 24.0228 20.1866C24.6714 17.8978 24.9971 16.6699 24.9971 16.5045C24.9971 15.6417 24.6971 15.2096 24.0986 15.2096C23.9 15.2096 23.3328 15.559 22.4014 16.2549L21.2543 14.9102C22.3186 13.949 23.3828 12.9864 24.4471 12.0224C25.8771 10.7618 26.9414 10.0972 27.6414 10.0302C28.7386 9.9318 29.5443 10.2541 30.06 10.9985C30.5743 11.7443 30.7657 12.7098 30.6343 13.9005C30.2014 15.9184 29.7357 18.481 29.2371 21.5898C29.2028 23.013 29.7186 23.7232 30.7828 23.7232C31.2486 23.7232 32.08 23.2326 33.2771 22.2501C34.2757 21.4315 35.09 20.6614 35.7228 19.9399L36.67 21.1848Z" fill="#1AB7EA"/>
<path d="M67.8243 21.1834C66.8928 22.9417 65.6128 24.5332 63.9828 25.9592C61.7543 27.883 59.5257 28.8456 57.2986 28.8456C55.1357 28.8456 54.0886 27.652 54.1557 25.2619C54.1871 24.1995 54.3957 22.9246 54.7786 21.4315C55.16 19.937 55.3686 18.7762 55.4014 17.9462C55.4357 16.687 55.0514 16.0553 54.25 16.0553C53.3828 16.0553 52.3486 17.0849 51.1471 19.1427C49.88 21.3017 49.1943 23.3923 49.0957 25.4173C49.0243 26.8463 49.1671 27.9415 49.5143 28.7044C47.1943 28.7714 45.5686 28.3892 44.6414 27.5593C43.81 26.8291 43.43 25.6184 43.4971 23.9243C43.5257 22.8618 43.6914 21.7994 43.9871 20.737C44.28 19.6746 44.4428 18.7291 44.4757 17.8977C44.5471 16.6699 44.0928 16.0553 43.1271 16.0553C42.2943 16.0553 41.3943 17.0022 40.43 18.8946C39.4643 20.7855 38.9314 22.762 38.8314 24.8198C38.76 26.6808 38.8886 27.9743 39.1886 28.7044C36.9057 28.7714 35.2843 28.2908 34.3257 27.2641C33.5286 26.4042 33.1657 25.0965 33.2328 23.341C33.2614 22.4811 33.4171 21.2804 33.6914 19.7416C33.9657 18.2015 34.1186 17.0022 34.15 16.1408C34.2214 15.5462 34.0643 15.2467 33.7014 15.2467C33.5014 15.2467 32.9357 15.5833 32.0043 16.2549L30.8071 14.9102C30.9743 14.779 32.02 13.8149 33.95 12.0224C35.3471 10.729 36.2943 10.0644 36.7928 10.0316C37.6586 9.9646 38.3557 10.3211 38.8886 11.1012C39.42 11.8812 39.6871 12.7868 39.6871 13.8149C39.6871 14.1472 39.6586 14.4624 39.5871 14.7619C40.0857 13.9989 40.6671 13.3329 41.3328 12.7682C42.8628 11.442 44.5757 10.6933 46.4714 10.5279C48.1014 10.3953 49.2643 10.776 49.9643 11.673C50.5286 12.4032 50.7943 13.4499 50.7614 14.8103C50.9943 14.6121 51.2443 14.3954 51.5114 14.1629C52.2743 13.2673 53.0228 12.5543 53.7543 12.0224C54.9843 11.1254 56.2671 10.6277 57.5957 10.5279C59.1928 10.3953 60.34 10.7746 61.0386 11.6687C61.6357 12.396 61.9028 13.4385 61.8371 14.7932C61.8028 15.7202 61.5786 17.0678 61.1628 18.8375C60.7457 20.6073 60.54 21.6226 60.54 21.8879C60.5057 22.5838 60.5728 23.0629 60.7386 23.3267C60.9057 23.592 61.3028 23.7232 61.9357 23.7232C62.4014 23.7232 63.2314 23.2326 64.43 22.2486C65.4271 21.4315 66.2428 20.6614 66.8757 19.9399L67.8243 21.1834Z" fill="#1AB7EA"/>
<path d="M75.2072 15.9326C75.2386 15.0414 74.8743 14.595 74.1115 14.595C73.1143 14.595 72.1015 15.2809 71.0729 16.6514C70.0429 18.0218 69.5115 19.3352 69.4786 20.5901C69.46 20.5901 69.46 20.8055 69.4786 21.2347C71.1057 20.6401 72.5172 19.7331 73.7129 18.5095C74.6757 17.4528 75.1729 16.5929 75.2072 15.9326ZM86.5315 21.132C85.5672 22.725 83.6715 24.315 80.8443 25.9065C77.32 27.9286 73.7429 28.9383 70.1186 28.9383C67.4258 28.9383 65.4943 28.0427 64.3315 26.2502C63.5 25.0223 63.1015 23.562 63.1343 21.8693C63.1672 19.1812 64.3658 16.6257 66.7272 14.2014C69.32 11.5461 72.38 10.217 75.9057 10.217C79.1657 10.217 80.8943 11.5432 81.0943 14.1914C81.2272 15.8799 80.2957 17.6197 78.3 19.4079C76.1715 21.3631 73.4929 22.6037 70.2686 23.1328C70.8658 23.9613 71.7629 24.3749 72.9615 24.3749C75.3557 24.3749 77.9672 23.7674 80.7943 22.551C82.8229 21.6968 84.42 20.8098 85.5843 19.89L86.5315 21.132Z" fill="#1AB7EA"/>
<path d="M94.4357 17.6068C94.4686 16.7084 94.3443 15.8856 94.0614 15.1369C93.7785 14.3897 93.37 14.0132 92.84 14.0132C91.1428 14.0132 89.7457 14.9287 88.65 16.7583C87.7171 18.2557 87.2171 19.8529 87.1528 21.547C87.1186 22.3798 87.2686 23.1128 87.6014 23.7432C87.9657 24.4762 88.4814 24.8412 89.1486 24.8412C90.6443 24.8412 91.9257 23.9613 92.99 22.1973C93.8871 20.7328 94.3686 19.2026 94.4357 17.6068ZM100.073 17.7951C99.94 20.8454 98.81 23.4808 96.6814 25.7011C94.5528 27.9215 91.9071 29.0324 88.7486 29.0324C86.1214 29.0324 84.1257 28.1868 82.7628 26.4954C81.7657 25.2362 81.2157 23.6619 81.1171 21.7738C80.9486 18.9217 81.98 16.3034 84.21 13.9162C86.6043 11.2652 89.6128 9.93893 93.2386 9.93893C95.5657 9.93893 97.3286 10.719 98.5271 12.2762C99.6586 13.7023 100.173 15.5419 100.073 17.7951Z" fill="#1AB7EA"/>
</g>
<defs>
<clipPath id="clip0_2002_3337">
<rect width="100" height="28.5211" fill="white" transform="translate(0.5 0.739441)"/>
</clipPath>
</defs>
</svg>
