<svg width="101" height="30" viewBox="0 0 101 30" fill="none" xmlns="http://www.w3.org/2000/svg">
<path d="M31.7236 7.35918C31.3562 5.9925 30.2771 4.91849 28.9042 4.55265C26.4183 3.88892 16.4452 3.88892 16.4452 3.88892C16.4452 3.88892 6.47224 3.88892 3.98621 4.55265C2.61326 4.91849 1.53431 5.9925 1.16679 7.35918C0.5 9.83381 0.5 15 0.5 15C0.5 15 0.5 20.1662 1.16679 22.6409C1.53431 24.0075 2.61326 25.0815 3.98621 25.4473C6.47224 26.1111 16.4452 26.1111 16.4452 26.1111C16.4452 26.1111 26.4183 26.1111 28.9042 25.4473C30.2771 25.0815 31.3562 24.0075 31.7236 22.6409C32.3905 20.1662 32.3905 15 32.3905 15C32.3905 15 32.3878 9.83381 31.7236 7.35918Z" fill="#FF0000"/>
<path d="M13.2532 19.7615L21.5382 15.0004L13.2532 10.2392V19.7615Z" fill="white"/>
<path d="M39.1239 18.3373L35.5432 5.46494H38.6672L39.922 11.3001C40.2423 12.7373 40.4759 13.9629 40.6281 14.9768H40.72C40.825 14.2503 41.0614 13.0326 41.4262 11.321L42.7256 5.46494H45.8496L42.2242 18.3373V24.5122H39.1214V18.3373H39.1239Z" fill="#282828"/>
<path d="M46.7892 24.1041C46.1592 23.6807 45.7103 23.0222 45.4425 22.1285C45.1774 21.2348 45.0436 20.0485 45.0436 18.5642V16.5442C45.0436 15.0469 45.1958 13.8422 45.5003 12.9355C45.8048 12.0287 46.28 11.365 46.9257 10.9495C47.5716 10.534 48.4195 10.325 49.4696 10.325C50.5039 10.325 51.3308 10.5366 51.9555 10.9599C52.5777 11.3833 53.0345 12.047 53.3232 12.9459C53.612 13.8475 53.7564 15.0469 53.7564 16.5442V18.5642C53.7564 20.0485 53.6147 21.2401 53.3338 22.1389C53.0529 23.0405 52.5961 23.6991 51.966 24.1145C51.336 24.5301 50.4802 24.7391 49.4013 24.7391C48.2882 24.7416 47.4193 24.5274 46.7892 24.1041ZM50.3227 21.9247C50.496 21.4701 50.5853 20.7305 50.5853 19.701V15.3657C50.5853 14.3675 50.4986 13.6358 50.3227 13.1759C50.1468 12.7134 49.8397 12.4834 49.3986 12.4834C48.9734 12.4834 48.6715 12.7134 48.4983 13.1759C48.3224 13.6384 48.2357 14.3675 48.2357 15.3657V19.701C48.2357 20.7305 48.3197 21.4726 48.4878 21.9247C48.6558 22.3794 48.9576 22.6067 49.3986 22.6067C49.8397 22.6067 50.1468 22.3794 50.3227 21.9247Z" fill="#282828"/>
<path d="M63.9184 24.5148H61.456L61.183 22.8111H61.1148C60.4453 24.0967 59.4425 24.7395 58.1037 24.7395C57.177 24.7395 56.4919 24.4364 56.0509 23.8328C55.6098 23.2265 55.3893 22.2806 55.3893 20.9949V10.5972H58.5369V20.8119C58.5369 21.4339 58.6051 21.8755 58.7416 22.1395C58.8781 22.4034 59.1065 22.5366 59.4268 22.5366C59.6998 22.5366 59.9623 22.4531 60.2144 22.2858C60.4664 22.1185 60.6501 21.9068 60.7735 21.6508V10.5946H63.9184V24.5148Z" fill="#282828"/>
<path d="M72.4688 7.98617H69.3449V24.5143H66.2656V7.98617H63.1416V5.4671H72.4688V7.98617Z" fill="#282828"/>
<path d="M80.0605 24.5148H77.5981L77.3251 22.8111H77.2569C76.5875 24.0967 75.5847 24.7395 74.2458 24.7395C73.3191 24.7395 72.634 24.4364 72.193 23.8328C71.7519 23.2265 71.5314 22.2806 71.5314 20.9949V10.5972H74.679V20.8119C74.679 21.4339 74.7472 21.8755 74.8837 22.1395C75.0202 22.4034 75.2486 22.5366 75.569 22.5366C75.8419 22.5366 76.1044 22.4531 76.3564 22.2858C76.6085 22.1185 76.7922 21.9068 76.9156 21.6508V10.5946H80.0605V24.5148Z" fill="#282828"/>
<path d="M90.4773 12.8207C90.2856 11.9427 89.9784 11.3077 89.5533 10.9131C89.128 10.5186 88.5425 10.3226 87.797 10.3226C87.2195 10.3226 86.6787 10.4846 86.1772 10.8112C85.6758 11.1379 85.2873 11.5638 85.0143 12.0943H84.9907V4.76181H81.9586V24.5119H84.5575L84.8777 23.1949H84.9461C85.1902 23.6653 85.5551 24.0337 86.0407 24.3082C86.5264 24.5799 87.0672 24.7158 87.6605 24.7158C88.7237 24.7158 89.5086 24.2272 90.01 23.2524C90.5114 22.2751 90.7633 20.7516 90.7633 18.6768V16.474C90.7633 14.9191 90.6662 13.6988 90.4773 12.8207ZM87.5922 18.4991C87.5922 19.513 87.5502 20.3074 87.4661 20.8823C87.3822 21.4572 87.243 21.8675 87.0435 22.1078C86.8466 22.3508 86.5789 22.4711 86.2455 22.4711C85.9856 22.4711 85.7467 22.4109 85.5262 22.2882C85.3057 22.1679 85.1272 21.9851 84.9907 21.7446V13.8451C85.0956 13.4662 85.2795 13.1578 85.5393 12.9148C85.7966 12.6718 86.0801 12.5516 86.382 12.5516C86.7023 12.5516 86.949 12.677 87.1224 12.9253C87.2982 13.1761 87.4189 13.5942 87.4872 14.1848C87.5554 14.7754 87.5896 15.6142 87.5896 16.7038V18.4991H87.5922Z" fill="#282828"/>
<path d="M95.2287 19.3013C95.2287 20.1949 95.255 20.8639 95.3075 21.3108C95.36 21.7576 95.4703 22.0817 95.6383 22.2882C95.8063 22.4919 96.0636 22.5938 96.4127 22.5938C96.8826 22.5938 97.2081 22.4109 97.3814 22.0477C97.5573 21.6845 97.6518 21.0783 97.6676 20.2316L100.382 20.3909C100.398 20.5112 100.406 20.6784 100.406 20.8901C100.406 22.1757 100.051 23.1374 99.345 23.7724C98.6389 24.4074 97.6386 24.7262 96.3471 24.7262C94.7956 24.7262 93.7088 24.2427 93.0866 23.2733C92.4619 22.3038 92.1521 20.8065 92.1521 18.7786V16.3484C92.1521 14.2605 92.475 12.7345 93.1208 11.7728C93.7666 10.8112 94.8718 10.3304 96.4389 10.3304C97.5179 10.3304 98.3475 10.5264 98.925 10.9209C99.5025 11.3155 99.9094 11.927 100.146 12.7606C100.382 13.5942 100.5 14.744 100.5 16.2125V18.5957H95.2287V19.3013ZM95.6278 12.7423C95.4676 12.9383 95.3627 13.2597 95.3075 13.7065C95.255 14.1534 95.2287 14.8302 95.2287 15.7396V16.7378H97.531V15.7396C97.531 14.8459 97.4996 14.1691 97.4392 13.7065C97.3788 13.244 97.2685 12.92 97.1083 12.7292C96.9483 12.5411 96.7015 12.4444 96.3681 12.4444C96.0321 12.447 95.7853 12.5463 95.6278 12.7423Z" fill="#282828"/>
</svg>