<svg xmlns="http://www.w3.org/2000/svg" viewBox="0 0 166.52 20.68"><defs><style>.cls-1{fill:#fab04f;}</style></defs><g id="Layer_2" data-name="Layer 2"><g id="Layer_1-2" data-name="Layer 1"><path class="cls-1" d="M1.42,2.85H15.49V7H10.78V19.65H6.13V7H1.42Z"/><path class="cls-1" d="M15.81,7.64a8.24,8.24,0,0,1,2-2.79,9,9,0,0,1,2.91-1.8,10.14,10.14,0,0,1,3.61-.63A10.26,10.26,0,0,1,28,3.05a9,9,0,0,1,2.92,1.8A8,8,0,0,1,32.8,7.64a9.11,9.11,0,0,1,.69,3.61,9.49,9.49,0,0,1-.68,3.62A8.3,8.3,0,0,1,28,19.61a10.11,10.11,0,0,1-3.71.66,10,10,0,0,1-3.69-.66,8.65,8.65,0,0,1-2.92-1.87,8.44,8.44,0,0,1-1.91-2.87,9.68,9.68,0,0,1-.67-3.62A8.94,8.94,0,0,1,15.81,7.64Zm4.74,6A4,4,0,0,0,22,15.27a4.62,4.62,0,0,0,4.52,0A4,4,0,0,0,28,13.64a5.25,5.25,0,0,0,.53-2.39,5.37,5.37,0,0,0-.51-2.4,3.8,3.8,0,0,0-1.45-1.62,4.32,4.32,0,0,0-2.32-.59A4.24,4.24,0,0,0,22,7.23a4,4,0,0,0-1.49,1.62,5.24,5.24,0,0,0-.53,2.4A5.25,5.25,0,0,0,20.55,13.64Z"/><path class="cls-1" d="M40.81,2.85v16.8H36V2.85Zm-1.66,16.8V15.57h2.93a7.43,7.43,0,0,0,1.64-.18,3.89,3.89,0,0,0,1.45-.65,3.27,3.27,0,0,0,1-1.32,5.23,5.23,0,0,0,.39-2.17,5.23,5.23,0,0,0-.39-2.17,3.27,3.27,0,0,0-1-1.32,3.89,3.89,0,0,0-1.45-.65,7.43,7.43,0,0,0-1.64-.18H39.15V2.85h3.12a11,11,0,0,1,4.91,1,7.47,7.47,0,0,1,3.17,2.89,8.67,8.67,0,0,1,1.11,4.49,8.68,8.68,0,0,1-1.11,4.48,7.49,7.49,0,0,1-3.17,2.9,11,11,0,0,1-4.91,1Z"/><path class="cls-1" d="M58.37,14.78l.29,1-1.94,3.84H51.44L60.58,1.72l9.17,17.93H64.47L62.55,16l.26-1.2-2.23-5Zm-2-1.27H65l.12,3.43H56.19Z"/><path class="cls-1" d="M84.61,2.85l-6,10.08v6.72H73.9V13l-6-10.13H73.3l3,5.88,3-5.88Z"/><path class="cls-1" d="M109.18,2.85V20.49L97.93,11.11v8.54H93.46V2l11.26,9.38V2.85Z"/><path class="cls-1" d="M117.1,2.85v16.8h-4.46V2.85Zm-1.29,0h8.47V6.62h-8.47Zm0,6.24h8v3.65h-8Zm0,6.79h8.47v3.77h-8.47Z"/><path class="cls-1" d="M146.24,2.85h5.57l-7.47,17.83-5.54-9.26-5.52,9.26L125.81,2.85h5.57l3,8.76L138.8,2l4.49,9.6Z"/><path class="cls-1" d="M156.92,15a4.4,4.4,0,0,0,1.37,1,3.55,3.55,0,0,0,1.53.34,2.19,2.19,0,0,0,1.27-.35,1.26,1.26,0,0,0,.22-1.82,3.07,3.07,0,0,0-1-.66c-.47-.23-1.13-.5-2-.82a13.39,13.39,0,0,1-1.39-.64,7.26,7.26,0,0,1-1.48-1,5,5,0,0,1-1.17-1.53,4.71,4.71,0,0,1-.47-2.16,4.27,4.27,0,0,1,.84-2.68A5.33,5.33,0,0,1,156.89,3a8.11,8.11,0,0,1,3.1-.57,7.76,7.76,0,0,1,3.07.56A6.83,6.83,0,0,1,165.2,4.4a7.39,7.39,0,0,1,1.29,1.71l-3.5,2a4.13,4.13,0,0,0-.83-1,3.68,3.68,0,0,0-1-.61,3,3,0,0,0-1.09-.22,1.89,1.89,0,0,0-1.1.29.9.9,0,0,0-.41.77,1.12,1.12,0,0,0,.47.92,5.16,5.16,0,0,0,1.3.7c.55.22,1.18.45,1.91.71a9.61,9.61,0,0,1,1.71.8,5.9,5.9,0,0,1,1.36,1.11,4.57,4.57,0,0,1,.89,1.45,5.22,5.22,0,0,1,.31,1.82,5.06,5.06,0,0,1-.54,2.38,4.86,4.86,0,0,1-1.47,1.71,6.66,6.66,0,0,1-2.1,1,8.44,8.44,0,0,1-2.4.34,8.59,8.59,0,0,1-3.2-.58,8.19,8.19,0,0,1-2.56-1.61,7.07,7.07,0,0,1-1.63-2.27l3.17-2.3A6.91,6.91,0,0,0,156.92,15Z"/><path d="M0,1.13H14.06V5.28H9.36V17.93H4.7V5.28H0Z"/><path d="M14.39,5.92a8.36,8.36,0,0,1,1.95-2.79,9.18,9.18,0,0,1,2.92-1.8A10.14,10.14,0,0,1,22.87.7a10.26,10.26,0,0,1,3.66.63,9.07,9.07,0,0,1,2.92,1.8,8.17,8.17,0,0,1,1.93,2.79,9.11,9.11,0,0,1,.68,3.61,9.48,9.48,0,0,1-.67,3.62,8.3,8.3,0,0,1-4.81,4.74,10.11,10.11,0,0,1-3.71.66,10,10,0,0,1-3.69-.66A8.55,8.55,0,0,1,16.26,16a8.44,8.44,0,0,1-1.91-2.87,9.48,9.48,0,0,1-.67-3.62A8.94,8.94,0,0,1,14.39,5.92Zm4.74,6a4,4,0,0,0,1.49,1.63,4.62,4.62,0,0,0,4.52,0,4.1,4.1,0,0,0,1.48-1.63,5.28,5.28,0,0,0,.52-2.39,5.36,5.36,0,0,0-.5-2.4,3.86,3.86,0,0,0-1.45-1.62,4.34,4.34,0,0,0-2.32-.59,4.24,4.24,0,0,0-2.25.59,4,4,0,0,0-1.49,1.62,5.24,5.24,0,0,0-.53,2.4A5.28,5.28,0,0,0,19.13,11.92Z"/><path d="M39.38,1.13v16.8H34.56V1.13Zm-1.65,16.8V13.85h2.93a7.49,7.49,0,0,0,1.64-.18A3.89,3.89,0,0,0,43.75,13a3.35,3.35,0,0,0,1-1.32,5.23,5.23,0,0,0,.39-2.17,5.2,5.2,0,0,0-.39-2.17,3.35,3.35,0,0,0-1-1.32,3.74,3.74,0,0,0-1.45-.65,7.49,7.49,0,0,0-1.64-.18H37.73V1.13h3.12a11,11,0,0,1,4.91,1A7.44,7.44,0,0,1,48.92,5,8.55,8.55,0,0,1,50,9.53,8.53,8.53,0,0,1,48.92,14a7.42,7.42,0,0,1-3.16,2.91,11,11,0,0,1-4.91,1Z"/><path d="M57,13.06l.29,1L55.3,17.93H50L59.16,0l9.17,17.93H63.05l-1.92-3.67.26-1.2L59.16,8Zm-2-1.28h8.62l.12,3.44H54.77Z"/><path d="M83.18,1.13l-6,10.08v6.72H72.48V11.26l-6-10.13h5.38l3,5.88,3-5.88Z"/><path d="M107.76,1.13V18.77L96.5,9.38v8.55H92V.29L103.3,9.67V1.13Z"/><path d="M115.68,1.13v16.8h-4.46V1.13Zm-1.3,0h8.48V4.9h-8.48Zm0,6.24h8V11h-8Zm0,6.79h8.48v3.77h-8.48Z"/><path d="M144.81,1.13h5.57L142.92,19,137.38,9.7,131.85,19,124.39,1.13H130l2.95,8.76,4.47-9.6,4.48,9.6Z"/><path d="M155.49,13.31a4.65,4.65,0,0,0,1.37,1,3.79,3.79,0,0,0,1.54.34,2.21,2.21,0,0,0,1.27-.35,1.14,1.14,0,0,0,.5-1,1.19,1.19,0,0,0-.28-.81,3.57,3.57,0,0,0-1-.66q-.7-.33-2-.81a12.5,12.5,0,0,1-1.39-.64,7,7,0,0,1-1.48-1,5.14,5.14,0,0,1-1.17-1.53,4.59,4.59,0,0,1-.47-2.16,4.27,4.27,0,0,1,.84-2.68,5.33,5.33,0,0,1,2.23-1.67,8.11,8.11,0,0,1,3.1-.57,7.62,7.62,0,0,1,3.07.56,6.78,6.78,0,0,1,2.13,1.42,7.24,7.24,0,0,1,1.3,1.71l-3.5,2a4,4,0,0,0-.83-1,3.73,3.73,0,0,0-1-.61,2.71,2.71,0,0,0-1.08-.22,1.89,1.89,0,0,0-1.1.29.9.9,0,0,0-.41.77,1.14,1.14,0,0,0,.47.92,5.07,5.07,0,0,0,1.29.7l1.91.71a9.39,9.39,0,0,1,1.72.8,5.85,5.85,0,0,1,1.35,1.1,4.55,4.55,0,0,1,.89,1.46,5,5,0,0,1,.31,1.82,5.06,5.06,0,0,1-.54,2.38,4.92,4.92,0,0,1-1.46,1.71,6.64,6.64,0,0,1-2.1,1,8.11,8.11,0,0,1-2.4.35,8.4,8.4,0,0,1-3.2-.59,7.88,7.88,0,0,1-2.56-1.6,7.07,7.07,0,0,1-1.63-2.27l3.17-2.31A7.29,7.29,0,0,0,155.49,13.31Z"/></g></g></svg>