<?xml version="1.0" encoding="UTF-8"?>
<svg id="Layer_1" xmlns="http://www.w3.org/2000/svg" version="1.1" viewBox="0 0 580.26 167.27">
  <!-- Generator: Adobe Illustrator 29.5.1, SVG Export Plug-In . SVG Version: 2.1.0 Build 141)  -->
  <defs>
    <style>
      .st0 {
        fill: #fff;
      }

      .st1 {
        fill: #00bcc9;
      }

      .st2 {
        fill: #009c77;
      }
    </style>
  </defs>
  <path class="st2" d="M194.68,83.42h-4.53l.2-5.75v-33.63l-.2-4.06,4.85.21h7.34l3.75-.21c-2.43,10.45-5.01,16.15-5.01,16.15,9.23,10.46,6.33,18.84-2.96,19.42,0,0,.58-3.23-1.8-5.49,5.65.54,6.91.06,5.49-5.22-.73-2.69-2.53-5.7-4.86-7.76,0,0,1.75-3.27,3.65-13.04h-6.13v33.52l.21,5.86ZM221.82,57.56h5.65l4.85-.16v4.69l-4.85-.22h-5.65v15.22l.2,6.06h-5.12l.15-6.06v-15.22h-4.95l-5.71.16v-4.7l5.65.22h5.01v-12.46s-6.17,1.59-8.28,1.96c-.47-1.96-2.75-4.43-2.75-4.43,0,0,10.14-.11,20.33-5.03,1.53,2.17,3.7,4.97,3.7,4.97,0,0-2.86.47-4.07.74-2.05.48-4.16.9-4.16.9v13.35Z"/>
  <path class="st2" d="M260.37,38.86c-2.21,7.29-5.17,17.05-5.17,17.05,9.08,11.88,4.01,19.28-3.8,19.8-.31-3.02-1.69-4.32-2.32-5.33,7.6,1.59,8.77-6.18,1.8-13.14,0,0,1.69-6.55,3.7-14.26h-6.02v34.05l.21,6.28h-4.86l.22-6.18v-33.15l-.22-5.33,5.5.2h10.98ZM266.91,39.29h15.52l4.75-.21v4.6l-4.75-.26h-6.87l-1.79,7.28h5.81l4.23-.21-.22,5.01v20.11l.22,7.18h-4.64v-3.48h-12.46v3.6h-4.65l.21-7.19v-20l-.21-5.23,4.11.21h3.7l.85-7.28h-4.12l-4.75.26v-4.6l5.07.21ZM266.71,54.75v8.36h12.46v-8.36h-12.46ZM266.71,67.11v8.18h12.46v-8.18h-12.46Z"/>
  <path class="st2" d="M307.61,83.69h-4.8l.21-4.02v-16.26c-1.33,2.48-6.02,6.44-6.02,6.44-.74-2.7-2.54-4.75-2.54-4.75,2.8-1.49,9.55-8.03,11.94-13.09h-7.5l-3.49.1v-4.54l3.59.21h10.66l3.81-.11c-1.43,4.54-4.81,9.5-6.02,10.98v21.01l.16,4.02ZM307.46,37.97c1.31,2.07,2.53,7.07,2.53,7.07-1.58.22-5.59,1.48-5.59,1.48,0,0-.22-4.53-1.91-7.38l4.97-1.16ZM316,66.49c-1.43.46-4.33,2.63-4.33,2.63-.89-1.74-2.63-5.7-3.9-7.39l3.49-2.11c1.9,2.43,4.75,6.88,4.75,6.88ZM324.76,51.7v-9.93l-.2-4.22h5.07l-.21,4.12v10.03h4.33l5.39-.22v4.23l-5.19-.22h-4.53v20.39h7.18l4.65-.22v4.65l-4.55-.22h-18.36l-5.81.22v-4.65l6.54.22h5.7v-20.39h-5.27l-4.23.22v-4.23l4.75.22h4.75Z"/>
  <path class="st2" d="M357.94,38.86h30.41l5.06-.2v4.21l-5.06-.25h-30.93v36.69h33.26l4.85-.22v4.49l-4.85-.2h-32.73l-5.13.2.21-5.11v-34.85l-.21-4.96,5.13.2ZM365.33,61.94h5.23l4.75-.21-.21,4.07v5.96l.21,4.18-4.11-.21h-5.65l-4.75.11.2-3.95v-6.08l-.2-4.07,4.53.21ZM368.55,45.62h14.57l4.39-.21-.22,4.01v5.06l.22,4.23-4.59-.22h-14.04l-4.7.22.2-4.34v-4.86l-.2-4.11,4.38.21ZM365.02,65.57v6.61h6.07v-6.61h-6.07ZM368.34,49.43v5.27h14.78v-5.27h-14.78ZM382.17,61.73h5.66l4.75-.21-.21,4.06v5.82l.21,4.32-4.11-.21h-6.08l-4.75.1.22-4.11v-5.92l-.22-4.06,4.53.21ZM381.85,65.37v6.5h6.5v-6.5h-6.5Z"/>
  <path class="st2" d="M415.65,54.75l-2.33,4.06c-3.06-2.63-7.91-4.48-7.91-4.48l2.21-3.49c4.91,1.54,8.03,3.9,8.03,3.9ZM415.12,64.79c-2.47,9.5-4.64,17.1-4.64,17.1l-4.96-2.68c2.85-4.76,5.38-16.27,5.38-16.27l4.22,1.85ZM417.02,44.1l-2.85,3.9c-2.96-2.79-8.23-5.22-8.23-5.22l2.64-3.37c3.75,1.85,8.45,4.7,8.45,4.7ZM432.75,72.87s3.06-1.96,4.85-5.55h-11.82c-1.06,0-3.8.15-3.8.15v-3.79s2.8.16,3.69.16h13.94c1.9,0,4.85-.12,4.85-.12-1.47,4.12-3.58,7.19-7.7,11.52,0,0,4.28,2.74,14.77,2.11,0,0-1.42,1.43-1.89,2.59-.42,1-.63,2.84-.63,2.84-9.03-.05-16.16-4.8-16.16-4.8-3.96,2.48-7.97,3.81-14.15,5.55,0,0-.47-1.43-.95-2.22-.52-.84-2.01-2.1-2.01-2.1,5.82-.91,10.72-2.11,13.31-3.97,0,0-2.9-2.17-5.38-5.12,1.79-.95,3.7-2.16,3.7-2.16,1.58,2.26,3.26,3.53,5.38,4.9ZM420.72,63.26v1.9h-4.33s.1-1.54.1-2.12v-3.11c0-1-.15-2.42-.15-2.42,0,0,2.32.1,3.64.1h26.61c2.1,0,3.85-.17,3.85-.17-.05.8-.16,1.85-.16,2.54v2.06c0,.9.16,2.32.16,2.32h-4.6v-3.17h-25.12v2.07ZM448.43,49.21l-3.97-.15v3.47l.16,3.07-4.21-.2-14.36-.06-4.33.22v-4.12l4.28.16h14.35v-2.69l-16.47-.06-4.12.22v-4.02l4.33.22h16.22l.04-2.54-14.57.05-3.38.21v-4.12l3.49.22,15.2-.05s2.44-.05,3.59-.21l-.22,4,.05,2.45,3.91-.32v4.27Z"/>
  <path class="st2" d="M463.36,61.51c-1.11-2.22-3.27-4.22-3.27-4.22,6.34-5.38,9.08-20.38,9.08-20.38,2.17.63,6.12,1.79,6.12,1.79-1.1,1.48-2.84,5.54-3.79,7.4v30.72l.21,6.02h-5.07l.2-5.7v-21.74c-1,2.74-3.48,6.11-3.48,6.11ZM474.81,43.36s2.96.16,4.13.16h22.06c.9,0,4.49-.21,4.49-.21v4.38s-3.44-.25-4.55-.25h-22c-1.06,0-4.13.25-4.13.25v-4.32ZM476.08,50.64s3.44.16,4.6.16h17.05c.85,0,4.23-.16,4.23-.16v4.21s-3.18-.25-4.28-.25h-16.95c-1.05.09-4.65.25-4.65.25v-4.21ZM476.18,57.61s2.8.15,3.97.15h17.79c1,0,4.43-.1,4.43-.1v4.28s-3.48-.11-4.49-.26h-17.68c-1.05.1-4.02.26-4.02.26v-4.33ZM502.58,65.31s-.22,2.28-.22,3.12v9.17c0,1.28.17,4.76.17,4.76h-4.59v-3.28h-15.95v3.82h-4.6s.27-3.55.27-4.75v-9.25c0-.85-.22-3.69-.22-3.69,0,0,3.01.1,3.91.26h17.37c.68,0,3.85-.16,3.85-.16ZM482,74.98h15.95v-5.49h-15.95v5.49ZM491.12,36.02s1.22,2.01,2.27,5.28l-5.75,1.48s-.74-2.73-2.01-5.28l5.49-1.48Z"/>
  <path class="st2" d="M554.71,61.68l.21,3.54-3.7-.27h-27.87l-3.34.17.16-2.8v-9.82c-1.16.94-3.48,1.69-3.48,1.69,0,0-.84-2.22-2.96-3.49,6.34-1.74,17.33-7.71,20.64-14.47l6.34,2.11-.79.95c4.49,5.12,14.78,8.61,20.53,9.03,0,0-1.89,2.42-2.53,4.91-.74-.26-1.75-.79-3.06-1.27l-.16,3.64v6.08ZM547.9,48.74v1.63s-1.75-.11-3.16-.11h-14.05l-3.81.11v-1.73s-3.22,2.16-5.8,3.1l1.48.11h28.45l3.22-.15c-2.27-1.01-4.87-2.18-6.34-2.96ZM552.33,66.74s-.1,2.21-.1,3.12v10.08c0,1.21.16,3.8.16,3.8h-4.18v-2.38h-21.54v2.9h-4.28s.27-2.33.27-3.75v-10.24c0-.79-.1-3.63-.1-3.63,0,0,2.63.15,3.7.15h22.59l3.48-.05ZM524.09,55.49v5.87h10.97v-5.87h-10.97ZM532.76,59.61l-3.81,1.58c-.79-1.52-1.27-2.69-2.27-3.75l3.8-1.74s1.43,1.85,2.28,3.9ZM526.67,72.32h21.54v-2.15h-21.54v2.15ZM526.67,77.93h21.54v-2.11h-21.54v2.11ZM529.95,46.84h14.14s-5.12-3.16-7.34-6.07c0,0-4.28,4.18-6.81,6.07ZM550.59,55.49h-11.61v5.87h2.54c1.05-2.81,2.21-5.61,2.21-5.61l4.38,1.53s-1.96,2.43-2.9,4.07h5.38v-5.87Z"/>
  <rect class="st1" x="23.51" y="108.09" width="536.95" height="37.13"/>
  <g>
    <path class="st0" d="M56.23,128.12l3.01.76c-.63,2.48-1.77,4.36-3.41,5.67-1.64,1.3-3.65,1.95-6.02,1.95s-4.45-.5-5.99-1.5c-1.54-1-2.71-2.45-3.51-4.34-.8-1.9-1.21-3.93-1.21-6.11,0-2.37.45-4.44,1.36-6.21.91-1.77,2.2-3.11,3.87-4.02s3.51-1.38,5.52-1.38c2.28,0,4.2.58,5.75,1.74s2.64,2.79,3.25,4.89l-2.97.7c-.53-1.66-1.3-2.87-2.3-3.62-1-.76-2.27-1.13-3.79-1.13-1.75,0-3.21.42-4.39,1.26s-2,1.97-2.48,3.38-.71,2.87-.71,4.38c0,1.94.28,3.63.85,5.07s1.44,2.53,2.63,3.24c1.19.71,2.48,1.07,3.87,1.07,1.69,0,3.12-.49,4.29-1.46,1.17-.97,1.96-2.42,2.38-4.33Z"/>
    <path class="st0" d="M61.87,136.11v-16.5h2.52v2.5c.64-1.17,1.24-1.94,1.78-2.32s1.14-.56,1.79-.56c.94,0,1.9.3,2.88.9l-.96,2.6c-.68-.4-1.37-.61-2.05-.61-.61,0-1.16.18-1.65.55-.49.37-.83.88-1.04,1.53-.31.99-.47,2.08-.47,3.26v8.64h-2.8Z"/>
    <path class="st0" d="M70.75,127.86c0-3.06.85-5.32,2.55-6.79,1.42-1.22,3.15-1.83,5.19-1.83,2.27,0,4.12.74,5.56,2.23,1.44,1.49,2.16,3.54,2.16,6.16,0,2.12-.32,3.79-.96,5.01-.64,1.22-1.56,2.16-2.78,2.84-1.22.67-2.55,1.01-3.99,1.01-2.31,0-4.18-.74-5.6-2.22-1.42-1.48-2.14-3.62-2.14-6.4ZM73.63,127.86c0,2.11.46,3.7,1.38,4.75.92,1.05,2.08,1.58,3.48,1.58s2.54-.53,3.46-1.58,1.38-2.67,1.38-4.83c0-2.04-.46-3.59-1.39-4.64-.93-1.05-2.08-1.58-3.46-1.58s-2.56.52-3.48,1.57c-.92,1.05-1.38,2.63-1.38,4.74Z"/>
    <path class="st0" d="M87.68,131.19l2.77-.44c.16,1.11.59,1.96,1.3,2.55.71.59,1.7.89,2.98.89s2.24-.26,2.86-.79c.62-.52.93-1.14.93-1.84,0-.63-.27-1.13-.82-1.49-.38-.25-1.34-.56-2.86-.95-2.05-.52-3.47-.97-4.27-1.34-.79-.38-1.39-.9-1.8-1.57-.41-.67-.61-1.41-.61-2.21,0-.74.17-1.42.5-2.04.34-.63.79-1.15,1.38-1.56.44-.32,1.03-.59,1.78-.82.75-.22,1.56-.33,2.42-.33,1.29,0,2.43.19,3.41.56.98.37,1.7.88,2.17,1.52.47.64.79,1.49.96,2.56l-2.74.37c-.12-.85-.48-1.51-1.08-1.99-.6-.48-1.44-.71-2.52-.71-1.29,0-2.2.21-2.75.64s-.82.92-.82,1.49c0,.36.11.69.34.98.23.3.58.55,1.07.75.28.1,1.1.34,2.47.71,1.98.53,3.36.96,4.14,1.3s1.4.83,1.84,1.47c.45.64.67,1.44.67,2.39s-.27,1.81-.82,2.63c-.54.82-1.33,1.46-2.35,1.91-1.03.45-2.19.68-3.48.68-2.14,0-3.78-.45-4.9-1.34-1.12-.89-1.84-2.21-2.15-3.96Z"/>
    <path class="st0" d="M102.89,131.19l2.77-.44c.16,1.11.59,1.96,1.3,2.55.71.59,1.7.89,2.98.89s2.24-.26,2.86-.79c.62-.52.93-1.14.93-1.84,0-.63-.27-1.13-.82-1.49-.38-.25-1.34-.56-2.86-.95-2.05-.52-3.47-.97-4.27-1.34-.79-.38-1.39-.9-1.8-1.57-.41-.67-.61-1.41-.61-2.21,0-.74.17-1.42.5-2.04.34-.63.79-1.15,1.38-1.56.44-.32,1.03-.59,1.78-.82.75-.22,1.56-.33,2.42-.33,1.29,0,2.43.19,3.41.56.98.37,1.7.88,2.17,1.52.47.64.79,1.49.96,2.56l-2.74.37c-.12-.85-.48-1.51-1.08-1.99-.6-.48-1.44-.71-2.52-.71-1.29,0-2.2.21-2.75.64s-.82.92-.82,1.49c0,.36.11.69.34.98.23.3.58.55,1.07.75.28.1,1.1.34,2.47.71,1.98.53,3.36.96,4.14,1.3s1.4.83,1.84,1.47c.45.64.67,1.44.67,2.39s-.27,1.81-.82,2.63c-.54.82-1.33,1.46-2.35,1.91-1.03.45-2.19.68-3.48.68-2.14,0-3.78-.45-4.9-1.34-1.12-.89-1.84-2.21-2.15-3.96Z"/>
    <path class="st0" d="M119.19,136.11v-16.5h2.52v2.5c.64-1.17,1.24-1.94,1.78-2.32s1.14-.56,1.79-.56c.94,0,1.9.3,2.88.9l-.96,2.6c-.68-.4-1.37-.61-2.05-.61-.61,0-1.16.18-1.65.55-.49.37-.83.88-1.04,1.53-.31.99-.47,2.08-.47,3.26v8.64h-2.8Z"/>
    <path class="st0" d="M128.08,127.86c0-3.06.85-5.32,2.55-6.79,1.42-1.22,3.15-1.83,5.19-1.83,2.27,0,4.12.74,5.56,2.23,1.44,1.49,2.16,3.54,2.16,6.16,0,2.12-.32,3.79-.96,5.01-.64,1.22-1.56,2.16-2.78,2.84-1.22.67-2.55,1.01-3.99,1.01-2.31,0-4.18-.74-5.6-2.22-1.42-1.48-2.14-3.62-2.14-6.4ZM130.95,127.86c0,2.11.46,3.7,1.38,4.75.92,1.05,2.08,1.58,3.48,1.58s2.54-.53,3.46-1.58,1.38-2.67,1.38-4.83c0-2.04-.46-3.59-1.39-4.64-.93-1.05-2.08-1.58-3.46-1.58s-2.56.52-3.48,1.57c-.92,1.05-1.38,2.63-1.38,4.74Z"/>
    <path class="st0" d="M156.89,134.07c-1.04.88-2.03,1.5-2.99,1.87-.96.36-1.99.54-3.08.54-1.81,0-3.21-.44-4.18-1.33s-1.46-2.02-1.46-3.4c0-.81.18-1.55.55-2.21.37-.67.85-1.21,1.45-1.61.6-.4,1.27-.71,2.01-.92.55-.15,1.38-.29,2.49-.42,2.26-.27,3.92-.59,4.99-.96.01-.38.02-.63.02-.73,0-1.14-.26-1.94-.79-2.41-.71-.63-1.78-.95-3.19-.95-1.32,0-2.29.23-2.91.69-.63.46-1.09,1.28-1.39,2.45l-2.73-.37c.25-1.17.66-2.12,1.23-2.84.57-.72,1.39-1.27,2.47-1.66,1.08-.39,2.33-.58,3.75-.58s2.55.17,3.43.5c.88.33,1.53.75,1.94,1.25.41.5.7,1.14.87,1.9.09.48.14,1.34.14,2.58v3.73c0,2.6.06,4.25.18,4.93.12.69.36,1.35.71,1.98h-2.92c-.29-.58-.48-1.26-.56-2.04ZM156.66,127.83c-1.02.42-2.54.77-4.57,1.06-1.15.17-1.96.35-2.44.56-.48.21-.84.51-1.1.91-.26.4-.39.84-.39,1.33,0,.75.28,1.37.85,1.86.56.5,1.39.75,2.48.75s2.04-.24,2.88-.71,1.46-1.12,1.85-1.93c.3-.63.45-1.56.45-2.8v-1.03Z"/>
    <path class="st0" d="M173.83,136.11v-2.08c-1.05,1.64-2.58,2.46-4.62,2.46-1.32,0-2.53-.36-3.63-1.09s-1.96-1.74-2.56-3.04c-.61-1.3-.91-2.79-.91-4.48s.27-3.14.82-4.48,1.37-2.37,2.47-3.08c1.1-.71,2.33-1.07,3.68-1.07.99,0,1.88.21,2.66.63.78.42,1.41.97,1.9,1.64v-8.17h2.78v22.78h-2.6ZM164.99,127.87c0,2.11.45,3.69,1.34,4.74.89,1.05,1.94,1.57,3.16,1.57s2.26-.5,3.12-1.5,1.28-2.53,1.28-4.58c0-2.26-.44-3.92-1.31-4.97-.87-1.06-1.94-1.59-3.22-1.59s-2.28.51-3.12,1.52c-.83,1.02-1.25,2.62-1.25,4.8Z"/>
    <path class="st0" d="M204.87,128.12l3.01.76c-.63,2.48-1.77,4.36-3.41,5.67-1.64,1.3-3.65,1.95-6.02,1.95s-4.45-.5-5.99-1.5c-1.54-1-2.71-2.45-3.51-4.34-.8-1.9-1.21-3.93-1.21-6.11,0-2.37.45-4.44,1.36-6.21.91-1.77,2.2-3.11,3.87-4.02s3.51-1.38,5.52-1.38c2.28,0,4.2.58,5.75,1.74s2.64,2.79,3.25,4.89l-2.97.7c-.53-1.66-1.3-2.87-2.3-3.62-1-.76-2.27-1.13-3.79-1.13-1.75,0-3.21.42-4.39,1.26s-2,1.97-2.48,3.38-.71,2.87-.71,4.38c0,1.94.28,3.63.85,5.07s1.44,2.53,2.63,3.24c1.19.71,2.48,1.07,3.87,1.07,1.69,0,3.12-.49,4.29-1.46,1.17-.97,1.96-2.42,2.38-4.33Z"/>
    <path class="st0" d="M209.5,127.86c0-3.06.85-5.32,2.55-6.79,1.42-1.22,3.15-1.83,5.19-1.83,2.27,0,4.12.74,5.56,2.23,1.44,1.49,2.16,3.54,2.16,6.16,0,2.12-.32,3.79-.96,5.01-.64,1.22-1.56,2.16-2.78,2.84-1.22.67-2.55,1.01-3.99,1.01-2.31,0-4.18-.74-5.6-2.22-1.42-1.48-2.14-3.62-2.14-6.4ZM212.38,127.86c0,2.11.46,3.7,1.38,4.75.92,1.05,2.08,1.58,3.48,1.58s2.54-.53,3.46-1.58,1.38-2.67,1.38-4.83c0-2.04-.46-3.59-1.39-4.64-.93-1.05-2.08-1.58-3.46-1.58s-2.56.52-3.48,1.57c-.92,1.05-1.38,2.63-1.38,4.74Z"/>
    <path class="st0" d="M227.55,136.11v-16.5h2.5v2.32c.52-.81,1.21-1.46,2.07-1.95.86-.49,1.84-.74,2.94-.74,1.22,0,2.22.25,3.01.76s1.33,1.22,1.66,2.13c1.31-1.93,3-2.89,5.1-2.89,1.64,0,2.9.45,3.78,1.36.88.91,1.32,2.3,1.32,4.19v11.33h-2.78v-10.4c0-1.12-.09-1.92-.27-2.42s-.51-.89-.99-1.19c-.48-.3-1.04-.45-1.68-.45-1.16,0-2.12.39-2.89,1.16-.77.77-1.15,2.01-1.15,3.71v9.59h-2.8v-10.72c0-1.24-.23-2.18-.68-2.8-.46-.62-1.2-.93-2.24-.93-.79,0-1.52.21-2.18.62-.67.42-1.15,1.02-1.45,1.82-.3.8-.45,1.95-.45,3.45v8.56h-2.8Z"/>
    <path class="st0" d="M253.36,136.11v-16.5h2.5v2.32c.52-.81,1.21-1.46,2.07-1.95.86-.49,1.84-.74,2.94-.74,1.22,0,2.22.25,3.01.76s1.33,1.22,1.66,2.13c1.31-1.93,3-2.89,5.1-2.89,1.64,0,2.9.45,3.78,1.36.88.91,1.32,2.3,1.32,4.19v11.33h-2.78v-10.4c0-1.12-.09-1.92-.27-2.42s-.51-.89-.99-1.19c-.48-.3-1.04-.45-1.68-.45-1.16,0-2.12.39-2.89,1.16-.77.77-1.15,2.01-1.15,3.71v9.59h-2.8v-10.72c0-1.24-.23-2.18-.68-2.8-.46-.62-1.2-.93-2.24-.93-.79,0-1.52.21-2.18.62-.67.42-1.15,1.02-1.45,1.82-.3.8-.45,1.95-.45,3.45v8.56h-2.8Z"/>
    <path class="st0" d="M289.99,136.11v-2.42c-1.29,1.86-3.03,2.8-5.24,2.8-.97,0-1.88-.19-2.73-.56s-1.47-.84-1.88-1.41c-.41-.56-.7-1.26-.86-2.08-.11-.55-.17-1.42-.17-2.61v-10.23h2.8v9.15c0,1.46.06,2.45.17,2.95.18.74.55,1.31,1.12,1.73.57.42,1.27.63,2.11.63s1.63-.21,2.36-.64c.74-.43,1.26-1.02,1.56-1.76.31-.74.46-1.82.46-3.22v-8.84h2.8v16.5h-2.5Z"/>
    <path class="st0" d="M296.17,136.11v-16.5h2.52v2.35c1.21-1.81,2.96-2.72,5.25-2.72,1,0,1.91.18,2.74.54s1.46.83,1.87,1.41c.41.58.71,1.27.87,2.07.1.52.16,1.42.16,2.72v10.15h-2.8v-10.04c0-1.14-.11-1.99-.33-2.56-.22-.56-.6-1.01-1.16-1.35-.55-.34-1.2-.5-1.95-.5-1.19,0-2.22.38-3.08,1.13-.87.76-1.3,2.19-1.3,4.3v9.01h-2.8Z"/>
    <path class="st0" d="M313.18,116.55v-3.22h2.8v3.22h-2.8ZM313.18,136.11v-16.5h2.8v16.5h-2.8Z"/>
    <path class="st0" d="M325.65,133.61l.4,2.47c-.79.17-1.49.25-2.11.25-1.01,0-1.8-.16-2.36-.48-.56-.32-.95-.74-1.18-1.27-.23-.52-.34-1.62-.34-3.3v-9.5h-2.05v-2.18h2.05v-4.09l2.78-1.68v5.77h2.81v2.18h-2.81v9.65c0,.8.05,1.31.15,1.54.1.23.26.41.48.54s.54.2.96.2c.31,0,.72-.04,1.23-.11Z"/>
    <path class="st0" d="M327.56,142.47l-.31-2.63c.61.17,1.14.25,1.6.25.62,0,1.12-.1,1.49-.31.37-.21.68-.5.92-.87.18-.28.46-.97.85-2.08.05-.16.13-.38.25-.68l-6.26-16.54h3.02l3.43,9.56c.45,1.21.84,2.49,1.2,3.82.32-1.28.7-2.54,1.15-3.76l3.53-9.62h2.8l-6.28,16.78c-.67,1.81-1.2,3.06-1.57,3.75-.5.92-1.07,1.6-1.71,2.03s-1.41.65-2.3.65c-.54,0-1.14-.11-1.8-.34Z"/>
    <path class="st0" d="M351.27,136.11v-22.78h8.55c1.74,0,3.14.23,4.19.69,1.05.46,1.88,1.17,2.47,2.13.6.96.89,1.96.89,3.01,0,.97-.26,1.89-.79,2.75-.53.86-1.33,1.55-2.39,2.08,1.38.4,2.44,1.09,3.18,2.07.74.97,1.11,2.12,1.11,3.45,0,1.07-.23,2.06-.68,2.98-.45.92-1.01,1.62-1.67,2.12-.66.5-1.5.87-2.49,1.13-1,.25-2.23.38-3.68.38h-8.69ZM354.28,122.9h4.93c1.34,0,2.29-.09,2.88-.26.77-.23,1.34-.61,1.73-1.13.39-.53.58-1.19.58-1.99,0-.76-.18-1.42-.54-2-.36-.58-.88-.97-1.55-1.18-.67-.21-1.83-.32-3.47-.32h-4.55v6.88ZM354.28,133.42h5.67c.97,0,1.66-.04,2.05-.11.69-.12,1.27-.33,1.74-.62s.85-.71,1.15-1.27c.3-.55.45-1.19.45-1.92,0-.85-.22-1.59-.65-2.21-.44-.63-1.04-1.07-1.81-1.32-.77-.25-1.88-.38-3.33-.38h-5.27v7.83Z"/>
    <path class="st0" d="M382.33,134.07c-1.04.88-2.03,1.5-2.99,1.87s-1.99.54-3.08.54c-1.81,0-3.21-.44-4.18-1.33-.97-.89-1.46-2.02-1.46-3.4,0-.81.18-1.55.55-2.21.37-.67.85-1.21,1.45-1.61.6-.4,1.27-.71,2.01-.92.55-.15,1.38-.29,2.49-.42,2.26-.27,3.92-.59,4.99-.96,0-.38.02-.63.02-.73,0-1.14-.26-1.94-.79-2.41-.71-.63-1.78-.95-3.19-.95-1.32,0-2.29.23-2.91.69s-1.09,1.28-1.39,2.45l-2.74-.37c.25-1.17.66-2.12,1.23-2.84.57-.72,1.39-1.27,2.47-1.66,1.08-.39,2.33-.58,3.75-.58s2.55.17,3.43.5c.88.33,1.53.75,1.94,1.25.42.5.71,1.14.87,1.9.09.48.14,1.34.14,2.58v3.73c0,2.6.06,4.25.18,4.93.12.69.35,1.35.71,1.98h-2.92c-.29-.58-.48-1.26-.56-2.04ZM382.1,127.83c-1.02.42-2.54.77-4.57,1.06-1.15.17-1.96.35-2.44.56-.48.21-.84.51-1.1.91-.26.4-.39.84-.39,1.33,0,.75.28,1.37.85,1.86.57.5,1.39.75,2.48.75s2.04-.24,2.87-.71c.84-.47,1.46-1.12,1.85-1.93.3-.63.45-1.56.45-2.8v-1.03Z"/>
    <path class="st0" d="M388.57,142.44v-22.83h2.55v2.14c.6-.84,1.28-1.47,2.04-1.89.76-.42,1.67-.63,2.75-.63,1.41,0,2.65.36,3.73,1.09,1.08.73,1.89,1.75,2.44,3.07s.82,2.77.82,4.34c0,1.69-.3,3.21-.91,4.56-.61,1.35-1.49,2.39-2.64,3.11-1.16.72-2.37,1.08-3.64,1.08-.93,0-1.77-.2-2.51-.59-.74-.39-1.35-.89-1.83-1.49v8.03h-2.8ZM391.1,127.95c0,2.12.43,3.69,1.29,4.71.86,1.02,1.9,1.52,3.12,1.52s2.31-.53,3.2-1.58c.88-1.05,1.33-2.68,1.33-4.89s-.43-3.68-1.3-4.72c-.86-1.05-1.9-1.57-3.1-1.57s-2.25.56-3.16,1.67c-.92,1.11-1.38,2.73-1.38,4.86Z"/>
    <path class="st0" d="M411.67,133.61l.4,2.47c-.79.17-1.49.25-2.11.25-1.02,0-1.8-.16-2.36-.48-.56-.32-.95-.74-1.18-1.27-.23-.52-.34-1.62-.34-3.3v-9.5h-2.05v-2.18h2.05v-4.09l2.78-1.68v5.77h2.81v2.18h-2.81v9.65c0,.8.05,1.31.15,1.54.1.23.26.41.48.54s.54.2.96.2c.31,0,.72-.04,1.23-.11Z"/>
    <path class="st0" d="M413.72,116.55v-3.22h2.8v3.22h-2.8ZM413.72,136.11v-16.5h2.8v16.5h-2.8Z"/>
    <path class="st0" d="M418.96,131.19l2.77-.44c.16,1.11.59,1.96,1.3,2.55.71.59,1.7.89,2.98.89s2.24-.26,2.86-.79c.62-.52.93-1.14.93-1.84,0-.63-.27-1.13-.82-1.49-.38-.25-1.34-.56-2.86-.95-2.05-.52-3.47-.97-4.27-1.34-.79-.38-1.39-.9-1.8-1.57-.41-.67-.61-1.41-.61-2.21,0-.74.17-1.42.5-2.04s.79-1.15,1.38-1.56c.44-.32,1.03-.59,1.78-.82.75-.22,1.56-.33,2.42-.33,1.29,0,2.43.19,3.41.56.98.37,1.7.88,2.17,1.52.47.64.79,1.49.96,2.56l-2.73.37c-.12-.85-.48-1.51-1.08-1.99-.6-.48-1.44-.71-2.53-.71-1.29,0-2.2.21-2.75.64s-.82.92-.82,1.49c0,.36.11.69.34.98.23.3.58.55,1.07.75.28.1,1.1.34,2.47.71,1.98.53,3.36.96,4.14,1.3s1.4.83,1.84,1.47c.45.64.67,1.44.67,2.39s-.27,1.81-.82,2.63c-.54.82-1.33,1.46-2.35,1.91-1.03.45-2.19.68-3.48.68-2.14,0-3.78-.45-4.9-1.34-1.12-.89-1.84-2.21-2.15-3.96Z"/>
    <path class="st0" d="M441.4,133.61l.4,2.47c-.79.17-1.49.25-2.11.25-1.02,0-1.8-.16-2.36-.48-.56-.32-.95-.74-1.18-1.27-.23-.52-.34-1.62-.34-3.3v-9.5h-2.05v-2.18h2.05v-4.09l2.78-1.68v5.77h2.81v2.18h-2.81v9.65c0,.8.05,1.31.15,1.54.1.23.26.41.48.54s.54.2.96.2c.31,0,.72-.04,1.23-.11Z"/>
    <path class="st0" d="M468.19,128.12l3.02.76c-.63,2.48-1.77,4.36-3.41,5.67-1.64,1.3-3.65,1.95-6.02,1.95s-4.45-.5-5.99-1.5c-1.54-1-2.71-2.45-3.51-4.34-.8-1.9-1.2-3.93-1.2-6.11,0-2.37.45-4.44,1.36-6.21.91-1.77,2.2-3.11,3.87-4.02s3.51-1.38,5.52-1.38c2.28,0,4.2.58,5.75,1.74s2.64,2.79,3.25,4.89l-2.97.7c-.53-1.66-1.29-2.87-2.3-3.62-1-.76-2.27-1.13-3.79-1.13-1.75,0-3.21.42-4.39,1.26s-2,1.97-2.48,3.38-.71,2.87-.71,4.38c0,1.94.28,3.63.85,5.07s1.44,2.53,2.63,3.24,2.48,1.07,3.87,1.07c1.69,0,3.12-.49,4.29-1.46,1.17-.97,1.96-2.42,2.38-4.33Z"/>
    <path class="st0" d="M473.86,136.11v-22.78h2.8v8.17c1.3-1.51,2.95-2.27,4.94-2.27,1.22,0,2.28.24,3.19.72.9.48,1.55,1.15,1.93,2,.39.85.58,2.08.58,3.7v10.46h-2.8v-10.46c0-1.4-.3-2.42-.91-3.05-.61-.64-1.46-.96-2.57-.96-.83,0-1.61.21-2.34.64-.73.43-1.25,1.01-1.56,1.75-.31.74-.47,1.75-.47,3.05v9.03h-2.8Z"/>
    <path class="st0" d="M501.68,136.11v-2.42c-1.29,1.86-3.03,2.8-5.24,2.8-.97,0-1.88-.19-2.73-.56-.84-.37-1.47-.84-1.88-1.41s-.7-1.26-.86-2.08c-.11-.55-.17-1.42-.17-2.61v-10.23h2.8v9.15c0,1.46.06,2.45.17,2.95.18.74.55,1.31,1.12,1.73.57.42,1.27.63,2.11.63s1.63-.21,2.36-.64c.74-.43,1.26-1.02,1.56-1.76.31-.74.46-1.82.46-3.22v-8.84h2.8v16.5h-2.5Z"/>
    <path class="st0" d="M507.83,136.11v-16.5h2.52v2.5c.64-1.17,1.24-1.94,1.78-2.32s1.14-.56,1.79-.56c.94,0,1.9.3,2.88.9l-.96,2.6c-.68-.4-1.37-.61-2.05-.61-.61,0-1.16.18-1.65.55-.49.37-.83.88-1.04,1.53-.31.99-.47,2.08-.47,3.26v8.64h-2.8Z"/>
    <path class="st0" d="M528.53,130.07l2.75.36c-.3,1.9-1.07,3.38-2.31,4.45-1.24,1.07-2.76,1.61-4.56,1.61-2.26,0-4.07-.74-5.45-2.21-1.37-1.48-2.06-3.59-2.06-6.35,0-1.78.29-3.34.89-4.68.59-1.34,1.49-2.34,2.7-3.01,1.21-.67,2.52-1,3.94-1,1.79,0,3.26.45,4.4,1.36s1.87,2.19,2.19,3.86l-2.72.42c-.26-1.11-.72-1.94-1.38-2.5s-1.45-.84-2.39-.84c-1.41,0-2.55.51-3.43,1.52-.88,1.01-1.32,2.61-1.32,4.79s.42,3.83,1.27,4.83,1.96,1.51,3.33,1.51c1.1,0,2.02-.34,2.75-1.01.74-.67,1.2-1.71,1.4-3.11Z"/>
    <path class="st0" d="M532.97,136.11v-22.78h2.8v8.17c1.3-1.51,2.95-2.27,4.94-2.27,1.22,0,2.28.24,3.19.72.9.48,1.55,1.15,1.93,2,.39.85.58,2.08.58,3.7v10.46h-2.8v-10.46c0-1.4-.3-2.42-.91-3.05-.61-.64-1.46-.96-2.57-.96-.83,0-1.61.21-2.34.64-.73.43-1.25,1.01-1.56,1.75-.31.74-.47,1.75-.47,3.05v9.03h-2.8Z"/>
  </g>
  <g>
    <path class="st2" d="M92.55,96.18h-53.47c-16.27,0-18.54-13.8-15.06-19.58l28.88-48.01c2.47-4.12,6.37-5.04,11.26-5.04h13.48l6.72,11.77h-5.21l6.17,11.16h-20.66l7.38,12.93,20.54-.02,10.59,17.73c5.58,9.4-3.11,19.06-10.62,19.06"/>
    <polygon class="st2" points="96.99 35.33 90.35 23.56 87.73 23.56 94.37 35.33 96.99 35.33"/>
    <polygon class="st2" points="91.19 35.33 84.55 23.56 81.93 23.56 88.55 35.33 91.19 35.33"/>
    <polygon class="st2" points="123.85 96.18 121.21 96.18 114.57 84.41 117.21 84.41 123.85 96.18"/>
    <polygon class="st2" points="118.02 96.18 111.41 84.41 108.76 84.41 115.41 96.18 118.02 96.18"/>
    <path class="st2" d="M165.74,23.56h-53.47c-7.48,0-16.04,9.55-10.59,19.03l2.22,3.87h19.18l7.38,12.94h-19.18l14.37,25.01h-5.18l6.72,11.78h13.48c4.86,0,8.76-.91,11.26-5.04l28.88-48.01c3.46-5.78,1.21-19.58-15.06-19.58M177.41,41.18l-29,48.21c-.4.54-.79,1.01-1.31,1.43-1.83,1.33-4.27,1.43-6.47,1.46h-11.18l-3.58-6.25h5.21l-13.06-22.74h19.13l-11.8-20.74h-19.2l-1.43-2.54c-.96-2.2-1.14-4.02-.4-6.3,1.26-3.18,4.05-5.85,7.55-6.24l.47-.03,54.65.03,2.27.27c2.1.42,3.73,1.01,5.46,2.25,1.26,1.06,2.05,2.07,2.74,3.53.99,2.44,1.23,5.28-.05,7.65"/>
  </g>
</svg>